<svg version="1.1" id="Layer_1" xmlns="http://www.w3.org/2000/svg" xmlns:xlink="http://www.w3.org/1999/xlink" x="0px" y="0px"
	 viewBox="0 0 1800 27.8" style="enable-background:new 0 0 1800 27.8;" xml:space="preserve">
<style type="text/css">
	.st0{fill:#EA0028;}
</style>
<g>
	<polygon class="st0" points="1486.5,27.3 1475.2,15.3 1463.9,27.3 1451.6,15.2 1439.6,27.3 1427.9,15.3 1416.1,27.3 1404,14.8 
		395.2,14.8 383.9,3.2 372.1,15.3 360.4,3.2 348.4,15.2 336.1,3.2 324.8,15.3 313.4,3.2 301.9,14.8 0,14.8 0,12.8 301,12.8 
		313.5,0.4 324.8,12.4 336.1,0.4 348.4,12.4 360.4,0.4 372.1,12.4 383.9,0.4 396,12.8 1404.8,12.8 1416.1,24.4 1427.9,12.4 
		1439.6,24.4 1451.6,12.4 1463.9,24.4 1475.2,12.4 1486.6,24.4 1498.1,12.8 1800,12.8 1800,14.8 1499,14.8 	"/>
</g>
</svg>
