<svg version="1.1" id="Layer_1" xmlns="http://www.w3.org/2000/svg" xmlns:xlink="http://www.w3.org/1999/xlink" x="0px" y="0px"
	 viewBox="0 0 406.9 607.6" style="enable-background:new 0 0 406.9 607.6;" xml:space="preserve">
<g>
	<path class="st0" d="M51.6,144l75.6,219.7l119.8,1.4l50.9-6.2l64.4-208.5l30.5-0.3c0,0,5.9,0.3,2.5-3.6
		c-3.4-3.9-132.5-73.6-132.5-73.6L248,69.3V14.7l-10.4-2l-12.3-7.3h-34.4l-11.8,7.8l-10.6,1.4v53.2h-8.7L14.3,140.1
		c0,0-3.1,5.9,3.4,5.9S51.6,144,51.6,144z"/>
	<polyline class="st0" points="168.6,67.9 246.9,67.9 248,69.3 	"/>
	<polyline class="st0" points="51.6,144 289.5,134.8 394.6,150 	"/>
	<polyline class="st0" points="17.4,138.6 291.4,129.2 392.9,144.9 	"/>
	<polyline class="st0" points="234.1,68.6 293.2,129.4 293.2,134.8 	"/>
	<path class="st0" d="M164.1,148.5c19.6,0,69.4,1.7,89,9.5c0,0-0.6,7,2,12.9s-5,59.6-5,59.6l-11.5,103.8c0,0,0.3,12.2-9.5,12.2
		c-9.8,0-86.8,0-86.8,0s-7,3.5-11.5-11.1c-4.5-14.6-51.5-150.2-51.5-150.2s-2.2-19.7,0-21.1s22.7-9,39.7-11.5
		S164.1,148.5,164.1,148.5z"/>
	<path class="st0" d="M283,158.6c0,0,21.6-11.5,36.9-8.6s26.7,8,29.9,18.9l-40,133.5l-11.8,39.2l-19.9,1.7l-15.5,1.4
		c0,0-5.8,2.5-5.8-3.4c0-5.9,13.4-113.6,13.4-113.6l6.7-48.7L283,158.6z"/>
	<line class="st0" x1="275.5" y1="135.3" x2="246.9" y2="365.1"/>
	<line class="st0" x1="168.6" y1="15.4" x2="248" y2="15.3"/>
	<path class="st0" d="M178.4,364.3l2.5,56.2c0,0,21.7,2.8,34.7,2.8c12.9,0,27.2-2.2,28-2.8l0.7-22.7l1-32.8"/>
	<line class="st0" x1="261.2" y1="363.4" x2="244.3" y2="397.9"/>
	<path class="st0" d="M180.9,420.5c-9.8,0-9.5,5.8-9.5,7.6c0,0,0.4,3.9,7,5.8c6.1,1.7,17.2,3.1,37.2,3.1c18.9,0,30-1.6,36.6-2.7
		c7-1.1,7-6.5,7-7.7c0-2-0.4-8-15.5-6.2"/>
	<path class="st0" d="M251.1,434.6c-1.7,7.7-24.4,7.2-36.4,7.2c0,0-37.2,0.6-36.4-7.9"/>
	<line class="st0" x1="181.7" y1="437.9" x2="181.7" y2="600.1"/>
	<line class="st0" x1="244.3" y1="438.2" x2="244.3" y2="600.1"/>
</g>
<rect x="-15.5" y="-24.7" class="st1" width="470.8" height="591.3"/>
</svg>
