<svg class="house-illustration" xmlns="http://www.w3.org/2000/svg" viewBox="0 0 383.3 220.3">
  <style>
      .house-illustration path {
        stroke: #aca298;
        fill: #aca298;
        stroke-width: .25px;
      }

      .house-illustration polyline {
        fill: none;
        stroke: #ACA29A;
        stroke-width: 2;
        stroke-linecap: round;
        stroke-linejoin: round;
        stroke-miterlimit: 10;
      }

      .house-illustration line {
        fill: #333639;
      }
  </style>
<g>
	<path class="st0" d="M102.6,79.5c-0.2,0-0.4-0.1-0.6-0.2c-0.2-0.2-0.4-0.5-0.4-0.8v-4.4c0-0.6,0.4-1,1-1s1,0.4,1,1v3.1l50.6-11.9
		l26.8-37c0.2-0.2,0.4-0.4,0.7-0.4c0.3,0,0.5,0,0.8,0.2L210.3,51l10.7-2.2c0.5-0.1,1.1,0.2,1.2,0.8s-0.2,1.1-0.8,1.2l-11.1,2.3
		c-0.3,0.1-0.6,0-0.8-0.2L182,30.4l-26.4,36.4c-0.1,0.2-0.3,0.3-0.6,0.4l-52.2,12.3C102.8,79.5,102.7,79.5,102.6,79.5z"/>
</g>
<g>
	<path class="st0" d="M230.9,37.5c-0.1,0-0.1,0-0.2,0l-49-7.6c-0.5-0.1-0.9-0.6-0.8-1.1s0.6-0.9,1.1-0.8l49,7.6
		c0.5,0.1,0.9,0.6,0.8,1.1C231.8,37.2,231.3,37.5,230.9,37.5z"/>
</g>
<g>
	<path class="st0" d="M149,62.5c-0.3,0-0.7-0.2-0.9-0.5c-0.2-0.3-0.2-0.8,0-1.1l30.5-45.2c0.2-0.2,0.4-0.4,0.7-0.4
		c0.3,0,0.6,0,0.8,0.2l18,15c0.4,0.4,0.5,1,0.1,1.4c-0.4,0.4-1,0.5-1.4,0.1l-17.1-14.3l-28.7,42.4l8-1c0.5-0.1,1,0.3,1.1,0.9
		c0.1,0.5-0.3,1-0.9,1.1l-10.2,1.3C149.1,62.5,149,62.5,149,62.5z"/>
</g>
<g>
	<path class="st0" d="M221.2,31.1c-0.1,0-0.2,0-0.3-0.1l-41.7-13.8c-0.5-0.2-0.8-0.7-0.6-1.3c0.2-0.5,0.7-0.8,1.3-0.6L221.2,29
		l96.3-26.4c0.5-0.1,1.1,0.2,1.2,0.7c0.1,0.5-0.2,1.1-0.7,1.2l-96.6,26.5C221.3,31.1,221.3,31.1,221.2,31.1z"/>
</g>
<g>
	<path class="st0" d="M54.2,89.8c-0.4,0-0.8-0.3-0.9-0.7c-0.2-0.5,0.1-1,0.5-1.3l33.7-14.7l-0.9-22.5c0-0.2,0-0.4,0.1-0.5l15-27
		c0.2-0.4,0.7-0.6,1.1-0.5l60.4,17c0.5,0.1,0.8,0.7,0.7,1.2c-0.1,0.5-0.7,0.8-1.2,0.7l-59.7-16.8L88.7,50.9l0.9,22.9
		c0,0.4-0.2,0.8-0.6,1l-20.3,8.8l28.9-8.3l58.3-25.5c0.5-0.2,1.1,0,1.3,0.5c0.2,0.5,0,1.1-0.5,1.3L98.3,77.1c0,0-0.1,0-0.1,0
		L54.5,89.7C54.4,89.8,54.3,89.8,54.2,89.8z"/>
</g>
<g>
	<path class="st0" d="M87.7,51.6c-0.4,0-0.8-0.2-0.9-0.6c-0.2-0.5,0.1-1.1,0.6-1.3l28.5-11.2l-13.9-14.2c-0.4-0.4-0.4-1,0-1.4
		s1-0.4,1.4,0l15,15.3c0.2,0.2,0.3,0.6,0.3,0.9c-0.1,0.3-0.3,0.6-0.6,0.7L88,51.6C87.9,51.6,87.8,51.6,87.7,51.6z"/>
</g>
<g>
	<path class="st0" d="M117.8,68.5c-0.5,0-1-0.4-1-1l-0.2-28.6c0-0.3,0.1-0.6,0.4-0.8c0.2-0.2,0.6-0.3,0.9-0.2l39.9,10
		c0.5,0.1,0.9,0.7,0.7,1.2c-0.1,0.5-0.7,0.9-1.2,0.7l-38.7-9.7l0.2,27.3C118.8,68,118.3,68.5,117.8,68.5
		C117.8,68.5,117.8,68.5,117.8,68.5z"/>
</g>
<g>
	<path class="st0" d="M111.7,139.5c-0.2,0-0.5-0.1-0.7-0.2c-0.2-0.2-0.3-0.5-0.3-0.8v-19.8c0-0.5,0.4-0.9,0.8-1l49-7.9
		c0.5-0.1,1.1,0.3,1.1,0.8c0.1,0.5-0.3,1.1-0.8,1.1l-48.2,7.8v17.8l47.9-6.4c0.5-0.1,1.1,0.3,1.1,0.9c0.1,0.5-0.3,1.1-0.9,1.1
		l-49,6.6C111.8,139.5,111.8,139.5,111.7,139.5z"/>
</g>
<g>
	<path class="st0" d="M111.7,122.6c-0.6,0-1-0.4-1-1V76.4c0-0.6,0.4-1,1-1s1,0.4,1,1v45.3C112.7,122.2,112.3,122.6,111.7,122.6z"/>
</g>
<g>
	<path class="st0" d="M157.5,133.3c-0.6,0-1-0.4-1-1v-21c0-0.6,0.4-1,1-1s1,0.4,1,1v21C158.5,132.9,158.1,133.3,157.5,133.3z"/>
</g>
<g>
	<path class="st0" d="M154.2,133.7c-0.6,0-1-0.4-1-1v-21c0-0.6,0.4-1,1-1s1,0.4,1,1v21C155.2,133.3,154.7,133.7,154.2,133.7z"/>
</g>
<g>
	<path class="st0" d="M151.2,134.5c-0.6,0-1-0.4-1-1v-21c0-0.6,0.4-1,1-1s1,0.4,1,1v21C152.2,134.1,151.8,134.5,151.2,134.5z"/>
</g>
<g>
	<path class="st0" d="M148,135.1c-0.6,0-1-0.4-1-1v-21c0-0.6,0.4-1,1-1s1,0.4,1,1v21C149,134.6,148.6,135.1,148,135.1z"/>
</g>
<g>
	<path class="st0" d="M144.8,135.5c-0.6,0-1-0.4-1-1v-21c0-0.6,0.4-1,1-1s1,0.4,1,1v21C145.8,135,145.3,135.5,144.8,135.5z"/>
</g>
<g>
	<path class="st0" d="M141.5,135.5c-0.6,0-1-0.4-1-1v-21c0-0.6,0.4-1,1-1s1,0.4,1,1v21C142.5,135,142.1,135.5,141.5,135.5z"/>
</g>
<g>
	<path class="st0" d="M138.1,136.2c-0.6,0-1-0.4-1-1v-21c0-0.6,0.4-1,1-1s1,0.4,1,1v21C139.1,135.7,138.7,136.2,138.1,136.2z"/>
</g>
<g>
	<path class="st0" d="M135.3,136.8c-0.6,0-1-0.4-1-1v-21c0-0.6,0.4-1,1-1s1,0.4,1,1v21C136.3,136.4,135.9,136.8,135.3,136.8z"/>
</g>
<g>
	<path class="st0" d="M129,137.6c-0.6,0-1-0.4-1-1v-21c0-0.6,0.4-1,1-1s1,0.4,1,1v21C130,137.2,129.6,137.6,129,137.6z"/>
</g>
<g>
	<path class="st0" d="M126.3,138.1c-0.6,0-1-0.4-1-1v-21c0-0.6,0.4-1,1-1s1,0.4,1,1v21C127.3,137.7,126.9,138.1,126.3,138.1z"/>
</g>
<g>
	<path class="st0" d="M123,138.1c-0.6,0-1-0.4-1-1v-20.4c0-0.6,0.4-1,1-1s1,0.4,1,1v20.4C124,137.7,123.5,138.1,123,138.1z"/>
</g>
<g>
	<path class="st0" d="M120.3,138.7c-0.6,0-1-0.4-1-1v-20.3c0-0.6,0.4-1,1-1s1,0.4,1,1v20.3C121.3,138.3,120.9,138.7,120.3,138.7z"/>
</g>
<g>
	<path class="st0" d="M117.6,139.1c-0.6,0-1-0.4-1-1v-20.4c0-0.6,0.4-1,1-1s1,0.4,1,1v20.4C118.6,138.7,118.2,139.1,117.6,139.1z"/>
</g>
<g>
	<path class="st0" d="M114.8,139.5c-0.6,0-1-0.4-1-1v-20.3c0-0.6,0.4-1,1-1s1,0.4,1,1v20.3C115.8,139.1,115.3,139.5,114.8,139.5z"/>
</g>
<g>
	<path class="st0" d="M132.2,150.7c-0.2,0-0.5-0.1-0.6-0.2c-0.2-0.2-0.4-0.5-0.4-0.8v-34.9c0-0.6,0.4-1,1-1s1,0.4,1,1v33.7l2.6-0.5
		c9-8.8,22.7-2.8,25.4-1.5c0.5,0.2,0.7,0.8,0.5,1.3s-0.8,0.7-1.3,0.5c-2.5-1.2-15.3-6.8-23.4,1.4c-0.1,0.1-0.3,0.2-0.5,0.3l-4.1,0.8
		C132.3,150.7,132.2,150.7,132.2,150.7z"/>
</g>
<g>
	<path class="st0" d="M282.6,123.2c-0.1,0-0.1,0-0.2,0l-23.1-4c-0.5-0.1-0.8-0.5-0.8-1v-39c0-0.3,0.1-0.6,0.4-0.8s0.6-0.2,0.9-0.2
		l23.1,6.5c0.4,0.1,0.7,0.5,0.7,1v36.5c0,0.3-0.1,0.6-0.4,0.8C283.1,123.1,282.8,123.2,282.6,123.2z M260.5,117.4l21.1,3.7V86.5
		l-21.1-5.9V117.4z"/>
</g>
<g>
	<path class="st0" d="M282.6,107.4c-0.1,0-0.1,0-0.2,0l-23.1-5.1c-0.5-0.1-0.9-0.7-0.8-1.2c0.1-0.5,0.7-0.9,1.2-0.8l23.1,5.1
		c0.5,0.1,0.9,0.7,0.8,1.2C283.5,107.1,283,107.4,282.6,107.4z"/>
</g>
<g>
	<path class="st0" d="M271,121.2c-0.6,0-1-0.4-1-1V82.5c0-0.6,0.4-1,1-1s1,0.4,1,1v37.7C272,120.8,271.6,121.2,271,121.2z"/>
</g>
<g>
	<path class="st0" d="M282.6,98.5c-0.1,0-0.2,0-0.2,0L259.3,93c-0.5-0.1-0.9-0.7-0.7-1.2c0.1-0.5,0.7-0.9,1.2-0.7l23.1,5.4
		c0.5,0.1,0.9,0.7,0.7,1.2C283.5,98.2,283,98.5,282.6,98.5z"/>
</g>
<g>
	<path class="st0" d="M317.8,68c-0.1,0-0.2,0-0.3,0l-9.8-3.2c-0.4-0.1-0.7-0.5-0.7-1V31.8c0-0.3,0.2-0.6,0.4-0.8
		c0.3-0.2,0.6-0.2,0.9-0.1l9.8,3.7c0.4,0.1,0.6,0.5,0.6,0.9V67c0,0.3-0.2,0.6-0.4,0.8C318.2,67.9,318,68,317.8,68z M309,63.1
		l7.8,2.5V36.1l-7.8-2.9V63.1z"/>
</g>
<g>
	<path class="st0" d="M317.8,54.7c-0.1,0-0.2,0-0.3,0l-9.8-2.9c-0.5-0.2-0.8-0.7-0.7-1.2c0.2-0.5,0.7-0.8,1.2-0.7l9.8,2.9
		c0.5,0.2,0.8,0.7,0.7,1.2C318.6,54.4,318.2,54.7,317.8,54.7z"/>
</g>
<g>
	<path class="st0" d="M317.8,47c-0.1,0-0.2,0-0.3,0l-9.8-3.2c-0.5-0.2-0.8-0.7-0.6-1.3c0.2-0.5,0.7-0.8,1.3-0.6l9.8,3.2
		c0.5,0.2,0.8,0.7,0.6,1.3C318.6,46.8,318.2,47,317.8,47z"/>
</g>
<g>
	<path class="st0" d="M259.5,117.7c-0.1,0-0.2,0-0.2,0l-4.5-1.1c-0.4-0.1-0.8-0.5-0.8-1V82.2c0-0.3,0.1-0.6,0.4-0.8s0.5-0.3,0.8-0.2
		l4.5,0.9c0.5,0.1,0.9,0.6,0.8,1.2c-0.1,0.5-0.6,0.9-1.2,0.8l-3.3-0.7v31.4l3.7,0.9c0.5,0.1,0.9,0.7,0.7,1.2
		C260.4,117.4,260,117.7,259.5,117.7z"/>
</g>
<g>
	<path class="st0" d="M286.3,122.4c0,0-0.1,0-0.1,0l-3.7-0.5c-0.5-0.1-0.9-0.6-0.9-1.1c0.1-0.5,0.6-0.9,1.1-0.9l2.6,0.3V90.5l-3-0.8
		c-0.5-0.1-0.9-0.7-0.7-1.2c0.1-0.5,0.7-0.9,1.2-0.7l3.7,1c0.4,0.1,0.8,0.5,0.8,1v31.7c0,0.3-0.1,0.6-0.3,0.7
		C286.8,122.3,286.5,122.4,286.3,122.4z"/>
</g>
<g>
	<path class="st0" d="M317.8,117.7c-0.1,0-0.1,0-0.2,0l-6.3-1.1c-0.5-0.1-0.8-0.5-0.8-1V99.9c0-0.3,0.1-0.6,0.4-0.8
		c0.2-0.2,0.6-0.3,0.9-0.2l6.3,1.6c0.4,0.1,0.8,0.5,0.8,1v15.2c0,0.3-0.1,0.6-0.4,0.8C318.3,117.6,318,117.7,317.8,117.7z
		 M312.5,114.7l4.3,0.7v-13.2l-4.3-1.1V114.7z"/>
</g>
<g>
	<path class="st0" d="M317.8,106.8c-0.1,0-0.1,0-0.2,0l-6.3-1.4c-0.5-0.1-0.9-0.7-0.8-1.2s0.7-0.9,1.2-0.8l6.3,1.4
		c0.5,0.1,0.9,0.7,0.8,1.2C318.7,106.4,318.3,106.8,317.8,106.8z"/>
</g>
<g>
	<path class="st0" d="M357.1,136.2c-0.1,0-0.1,0-0.2,0l-6.5-1.1c-0.5-0.1-0.8-0.5-0.8-1v-27.3c0-0.3,0.1-0.6,0.4-0.8
		c0.2-0.2,0.6-0.3,0.8-0.2l6.5,1.5c0.5,0.1,0.8,0.5,0.8,1v26.9c0,0.3-0.1,0.6-0.4,0.8C357.6,136.1,357.3,136.2,357.1,136.2z
		 M351.7,133.2l4.5,0.7v-24.9l-4.5-1V133.2z"/>
</g>
<g>
	<path class="st0" d="M357.1,123.2c-0.1,0-0.1,0-0.2,0l-6.5-1.2c-0.5-0.1-0.9-0.6-0.8-1.2c0.1-0.5,0.6-0.9,1.2-0.8l6.5,1.2
		c0.5,0.1,0.9,0.6,0.8,1.2C358,122.9,357.6,123.2,357.1,123.2z"/>
</g>
<g>
	<path class="st0" d="M357.1,115.8c-0.1,0-0.1,0-0.2,0l-6.5-1.4c-0.5-0.1-0.9-0.6-0.8-1.2c0.1-0.5,0.6-0.9,1.2-0.8l6.5,1.4
		c0.5,0.1,0.9,0.6,0.8,1.2C358,115.5,357.6,115.8,357.1,115.8z"/>
</g>
<polyline class="st1" points="357.1,109.4 359.7,110 359.7,134.5 357.1,134.1 "/>
<g>
	<path class="st0" d="M350.7,133.7c-0.1,0-0.1,0-0.2,0l-3.5-0.8c-0.5-0.1-0.8-0.5-0.8-1v-24.9c0-0.3,0.1-0.6,0.4-0.8
		c0.2-0.2,0.5-0.3,0.8-0.2l3.5,0.8c0.5,0.1,0.9,0.6,0.8,1.2c-0.1,0.5-0.6,0.9-1.2,0.8l-2.3-0.5v22.8l2.7,0.6
		c0.5,0.1,0.9,0.6,0.8,1.2C351.5,133.4,351.1,133.7,350.7,133.7z"/>
</g>
<g>
	<path class="st0" d="M321,67.5c-0.1,0-0.2,0-0.3,0l-3.2-0.9c-0.5-0.1-0.8-0.7-0.7-1.2c0.1-0.5,0.7-0.8,1.2-0.7l1.9,0.5V38.5l-2.6-1
		c-0.5-0.2-0.8-0.8-0.6-1.3c0.2-0.5,0.8-0.8,1.3-0.6l3.2,1.2c0.4,0.1,0.6,0.5,0.6,0.9v28.8c0,0.3-0.1,0.6-0.4,0.8
		C321.4,67.5,321.2,67.5,321,67.5z"/>
</g>
<g>
	<path class="st0" d="M308,63.4c-0.1,0-0.2,0-0.3-0.1l-4-1.3c-0.4-0.1-0.7-0.5-0.7-1V31c0-0.3,0.2-0.6,0.4-0.8
		c0.3-0.2,0.6-0.2,0.9-0.1l4,1.7c0.5,0.2,0.8,0.8,0.5,1.3c-0.2,0.5-0.8,0.8-1.3,0.5l-2.6-1.1v27.8l3.3,1.1c0.5,0.2,0.8,0.7,0.6,1.3
		C308.8,63.2,308.4,63.4,308,63.4z"/>
</g>
<g>
	<path class="st0" d="M376.5,150.7c0,0-0.1,0-0.1,0L221,130.2c-0.5-0.1-0.9-0.6-0.9-1.1s0.6-0.9,1.1-0.9l155.3,20.5
		c0.5,0.1,0.9,0.6,0.9,1.1C377.4,150.3,377,150.7,376.5,150.7z"/>
</g>
<g>
	<path class="st0" d="M376.5,107.8c-0.1,0-0.2,0-0.3,0L220.9,62.4c-0.5-0.2-0.8-0.7-0.7-1.2c0.2-0.5,0.7-0.8,1.2-0.7l155.3,45.3
		c0.5,0.2,0.8,0.7,0.7,1.2C377.3,107.5,376.9,107.8,376.5,107.8z"/>
</g>
<g>
	<path class="st0" d="M376.5,142c-0.1,0-0.1,0-0.2,0L221,116.6c-0.5-0.1-0.9-0.6-0.8-1.1c0.1-0.5,0.6-0.9,1.1-0.8L376.6,140
		c0.5,0.1,0.9,0.6,0.8,1.1C377.4,141.6,377,142,376.5,142z"/>
</g>
<g>
	<path class="st0" d="M255,83.7c-0.1,0-0.2,0-0.3,0l-33.8-8.8c-0.5-0.1-0.9-0.7-0.7-1.2c0.1-0.5,0.7-0.9,1.2-0.7l33.8,8.8
		c0.5,0.1,0.9,0.7,0.7,1.2C255.9,83.4,255.5,83.7,255,83.7z"/>
</g>
<g>
	<path class="st0" d="M347.1,107.5c-0.1,0-0.2,0-0.3,0l-60.8-15.7c-0.5-0.1-0.9-0.7-0.7-1.2c0.1-0.5,0.7-0.9,1.2-0.7l60.8,15.7
		c0.5,0.1,0.9,0.7,0.7,1.2C348,107.2,347.6,107.5,347.1,107.5z"/>
</g>
<g>
	<path class="st0" d="M359.7,110.8c-0.1,0-0.2,0-0.3,0l-12.6-3.3c-0.5-0.1-0.9-0.7-0.7-1.2c0.1-0.5,0.7-0.9,1.2-0.7l12.6,3.3
		c0.5,0.1,0.9,0.7,0.7,1.2C360.6,110.5,360.1,110.8,359.7,110.8z"/>
</g>
<line class="st1" x1="376.5" y1="114.1" x2="359.7" y2="109.8"/>
<g>
	<path class="st0" d="M255,94.7c-0.1,0-0.2,0-0.2,0l-33.8-7.9c-0.5-0.1-0.9-0.7-0.7-1.2c0.1-0.5,0.7-0.9,1.2-0.7l33.8,7.9
		c0.5,0.1,0.9,0.7,0.7,1.2C255.9,94.4,255.5,94.7,255,94.7z"/>
</g>
<g>
	<path class="st0" d="M311.5,108c-0.1,0-0.2,0-0.2,0l-25.2-5.9c-0.5-0.1-0.9-0.7-0.7-1.2c0.1-0.5,0.7-0.9,1.2-0.7l25.2,5.9
		c0.5,0.1,0.9,0.7,0.7,1.2C312.4,107.6,312,108,311.5,108z"/>
</g>
<g>
	<path class="st0" d="M347.1,116.3c-0.1,0-0.2,0-0.2,0l-29.3-6.9c-0.5-0.1-0.9-0.7-0.7-1.2c0.1-0.5,0.7-0.9,1.2-0.7l29.3,6.9
		c0.5,0.1,0.9,0.7,0.7,1.2C348,116,347.6,116.3,347.1,116.3z"/>
</g>
<line class="st1" x1="376.5" y1="122.2" x2="359.7" y2="118.3"/>
<g>
	<path class="st0" d="M255,108.9c-0.1,0-0.1,0-0.2,0l-33.8-6.5c-0.5-0.1-0.9-0.6-0.8-1.2c0.1-0.5,0.6-0.9,1.2-0.8l33.8,6.5
		c0.5,0.1,0.9,0.6,0.8,1.2C255.9,108.6,255.5,108.9,255,108.9z"/>
</g>
<g>
	<path class="st0" d="M347.1,126.7c-0.1,0-0.1,0-0.2,0l-60.8-11.7c-0.5-0.1-0.9-0.6-0.8-1.2c0.1-0.5,0.6-0.9,1.2-0.8l60.8,11.7
		c0.5,0.1,0.9,0.6,0.8,1.2C348,126.3,347.6,126.7,347.1,126.7z"/>
</g>
<line class="st1" x1="376.5" y1="131.3" x2="359.7" y2="128.1"/>
<g>
	<path class="st0" d="M381.8,100.8h-5.3c-0.1,0-0.2,0-0.3,0L220.9,51.6c-0.5-0.2-0.8-0.7-0.7-1.3c0.2-0.5,0.7-0.8,1.3-0.7
		l155.2,49.2h3.4L322.4,3L316.6,5c-0.5,0.2-1.1-0.1-1.3-0.6c-0.2-0.5,0.1-1.1,0.6-1.3l6.6-2.2c0.4-0.1,0.9,0,1.2,0.4l58.9,98
		c0.2,0.3,0.2,0.7,0,1C382.4,100.6,382.1,100.8,381.8,100.8z"/>
</g>
<g>
	<path class="st0" d="M368.6,87.9c-0.1,0-0.2,0-0.3,0L233.6,44.6c-0.5-0.2-0.8-0.7-0.6-1.3s0.7-0.8,1.3-0.6l134.7,43.2
		c0.5,0.2,0.8,0.7,0.6,1.3C369.4,87.6,369,87.9,368.6,87.9z"/>
</g>
<g>
	<path class="st0" d="M304,56.7c-0.1,0-0.2,0-0.3,0l-56.8-18.4c-0.5-0.2-0.8-0.7-0.6-1.3c0.2-0.5,0.7-0.8,1.3-0.6l56.8,18.4
		c0.5,0.2,0.8,0.7,0.6,1.3C304.8,56.5,304.4,56.7,304,56.7z"/>
</g>
<g>
	<path class="st0" d="M360.7,74.9c-0.1,0-0.2,0-0.3,0l-39.7-12.7c-0.5-0.2-0.8-0.7-0.6-1.3c0.2-0.5,0.7-0.8,1.3-0.6L361,73
		c0.5,0.2,0.8,0.7,0.6,1.3C361.5,74.7,361.1,74.9,360.7,74.9z"/>
</g>
<g>
	<path class="st0" d="M304,46.4c-0.1,0-0.2,0-0.3-0.1L260,32c-0.5-0.2-0.8-0.7-0.6-1.3c0.2-0.5,0.7-0.8,1.3-0.6l43.7,14.3
		c0.5,0.2,0.8,0.7,0.6,1.3C304.8,46.1,304.4,46.4,304,46.4z"/>
</g>
<g>
	<path class="st0" d="M353.1,62.5c-0.1,0-0.2,0-0.3-0.1l-32.1-10.5c-0.5-0.2-0.8-0.7-0.6-1.3c0.2-0.5,0.7-0.8,1.3-0.6l32.1,10.5
		c0.5,0.2,0.8,0.7,0.6,1.3C353.9,62.2,353.5,62.5,353.1,62.5z"/>
</g>
<g>
	<path class="st0" d="M304,35.5c-0.1,0-0.2,0-0.3-0.1l-29-10.5c-0.5-0.2-0.8-0.8-0.6-1.3c0.2-0.5,0.8-0.8,1.3-0.6l29,10.5
		c0.5,0.2,0.8,0.8,0.6,1.3C304.8,35.3,304.4,35.5,304,35.5z"/>
</g>
<g>
	<path class="st0" d="M345.9,50.6c-0.1,0-0.2,0-0.3-0.1l-24.9-9c-0.5-0.2-0.8-0.8-0.6-1.3c0.2-0.5,0.8-0.8,1.3-0.6l24.9,9
		c0.5,0.2,0.8,0.8,0.6,1.3C346.7,50.4,346.3,50.6,345.9,50.6z"/>
</g>
<g>
	<path class="st0" d="M338.3,37.5c-0.1,0-0.2,0-0.3-0.1L287.1,19c-0.5-0.2-0.8-0.8-0.6-1.3c0.2-0.5,0.8-0.8,1.3-0.6l50.8,18.5
		c0.5,0.2,0.8,0.8,0.6,1.3C339.1,37.3,338.7,37.5,338.3,37.5z"/>
</g>
<g>
	<path class="st0" d="M329.5,23.8c-0.1,0-0.2,0-0.4-0.1l-28.8-11c-0.5-0.2-0.8-0.8-0.6-1.3c0.2-0.5,0.8-0.8,1.3-0.6l28.8,11
		c0.5,0.2,0.8,0.8,0.6,1.3C330.3,23.5,329.9,23.8,329.5,23.8z"/>
</g>
<g>
	<path class="st0" d="M111.7,82.2c-0.5,0-0.9-0.3-1-0.8c-0.1-0.5,0.2-1.1,0.8-1.2l49-10.7l6.2-1.2c1.1-2.5,6.1-13,19.3-16.2
		c13.4-3.2,22.9,5.1,24.8,7l10.2-1.4c0.5-0.1,1.1,0.3,1.1,0.9c0.1,0.5-0.3,1.1-0.9,1.1l-10.7,1.5c-0.3,0-0.6-0.1-0.9-0.3
		c-0.1-0.1-9.7-10.1-23.3-6.8c-13.6,3.3-18.1,15.3-18.1,15.4c-0.1,0.3-0.4,0.6-0.8,0.6l-6.7,1.3l-49,10.7
		C111.9,82.2,111.8,82.2,111.7,82.2z"/>
</g>
<g>
	<path class="st0" d="M169.5,120.1c-0.2,0-0.5-0.1-0.7-0.2c-0.2-0.2-0.3-0.5-0.3-0.8V80.5c0-0.5,0.3-0.9,0.8-1l33.6-6.6
		c0.3-0.1,0.6,0,0.8,0.2c0.2,0.2,0.4,0.5,0.4,0.8v40.9c0,0.5-0.4,0.9-0.9,1l-33.6,4.3C169.6,120.1,169.6,120.1,169.5,120.1z
		 M170.5,81.4V118l31.6-4.1V75.1L170.5,81.4z"/>
</g>
<g>
	<path class="st0" d="M186.3,118.5c-0.6,0-1-0.4-1-1V77.2c0-0.6,0.4-1,1-1s1,0.4,1,1v40.2C187.3,118,186.9,118.5,186.3,118.5z"/>
</g>
<g>
	<path class="st0" d="M169.5,101.7c-0.5,0-0.9-0.4-1-0.8c-0.1-0.5,0.3-1.1,0.8-1.1l33.6-5.2c0.5-0.1,1.1,0.3,1.1,0.8
		c0.1,0.5-0.3,1.1-0.8,1.1l-33.6,5.2C169.6,101.7,169.6,101.7,169.5,101.7z"/>
</g>
<g>
	<path class="st0" d="M169.5,93.1c-0.5,0-0.9-0.3-1-0.8c-0.1-0.5,0.3-1.1,0.8-1.2l33.6-5.8c0.5-0.1,1.1,0.3,1.2,0.8
		c0.1,0.5-0.3,1.1-0.8,1.2l-33.6,5.8C169.6,93.1,169.6,93.1,169.5,93.1z"/>
</g>
<g>
	<path class="st0" d="M180.9,100c-0.6,0-1-0.4-1-1V78.3c0-0.6,0.4-1,1-1s1,0.4,1,1V99C181.9,99.5,181.4,100,180.9,100z"/>
</g>
<g>
	<path class="st0" d="M175,100.5c-0.6,0-1-0.4-1-1V79.2c0-0.6,0.4-1,1-1s1,0.4,1,1v20.2C176,100,175.5,100.5,175,100.5z"/>
</g>
<g>
	<path class="st0" d="M198.2,97.4c-0.6,0-1-0.4-1-1V74.9c0-0.6,0.4-1,1-1s1,0.4,1,1v21.5C199.2,96.9,198.7,97.4,198.2,97.4z"/>
</g>
<g>
	<path class="st0" d="M192,98.5c-0.6,0-1-0.4-1-1V76.1c0-0.6,0.4-1,1-1s1,0.4,1,1v21.4C193,98,192.5,98.5,192,98.5z"/>
</g>
<g>
	<path class="st0" d="M186.3,164.6C186.3,164.6,186.3,164.6,186.3,164.6l-16.2-0.2c-0.6,0-1-0.5-1-1c0-0.5,0.5-1,1-1c0,0,0,0,0,0
		l16.2,0.2c0.6,0,1,0.5,1,1C187.3,164.1,186.9,164.6,186.3,164.6z"/>
</g>
<g>
	<path class="st0" d="M175,174.3c-0.6,0-1-0.4-1-1v-21c0-0.6,0.4-1,1-1s1,0.4,1,1v21C176,173.8,175.5,174.3,175,174.3z"/>
</g>
<g>
	<path class="st0" d="M180.9,174.3c-0.6,0-1-0.4-1-1v-21c0-0.6,0.4-1,1-1s1,0.4,1,1v21C181.9,173.8,181.4,174.3,180.9,174.3z"/>
</g>
<path class="st0" d="M376.5,156.5c-0.6,0-1,0.4-1,1v36.6l-140.2,14.3c-0.2,0.3-0.4,0.6-0.6,1c-0.3,0.6-0.4,0.9-0.6,1.1L376.6,196
	c0.5-0.1,0.9-0.5,0.9-1v-37.5C377.5,156.9,377,156.5,376.5,156.5z"/>
<path class="st0" d="M219,214.3c-0.6,0-1.1,0-1.7-0.1c-0.5,0-1.1-0.1-1.7-0.1c-1.2,0-2.3-0.1-3.5-0.2c-1.6-0.1-3.2-0.3-4.6-0.1
	c-2,0.2-3.7,0-5.5-0.2c-0.7-0.1-1.5-0.2-2.2-0.2c-1.7-0.1-3.4,0-5.2,0.1c-1.3,0.1-2.7,0.2-4,0.2c-0.4,0-0.8,0-1.3,0
	c-0.9,0-1.8,0.1-2.7-0.1c-0.8-0.1-1.4-0.4-2.1-0.7c-0.6-0.2-1.1-0.5-1.7-0.5c-0.6-0.1-1.2-0.1-1.8-0.1c-1.1,0-2.3,0-3.4-0.4
	c-1.4-0.5-4.1-1.9-4.7-4.1c-0.3-0.9,0.1-1.6,0.3-1.9c0,0,0-0.1,0-0.1c0-0.2-0.1-0.4-0.2-0.6c-0.1-0.3-0.2-0.6-0.3-0.9l-0.1-0.6
	c-0.4-1.6-0.9-3.3-0.5-5.1c0.1-0.3,0.1-0.5,0.1-0.8c0.2-1.1,0.4-2.6,1.7-3.3c0.3-0.9,1.2-1.6,1.9-2c0.2-0.1,0.4-0.3,0.6-0.4
	c0.8-0.6,0.8-0.7,1.2-1.7l0.1-0.2c0.5-1.3,0.6-1.9,0.2-3.4c-0.7-2.9-0.2-6.3,1.3-8.9c0.1-0.2,0.3-0.5,0.4-0.7
	c0.3-0.5,0.6-0.9,0.7-1.3c0-0.1,0-0.3,0.1-0.5c0-0.3,0-0.7,0.1-1c0.1-0.5,0.5-0.8,0.7-1c0.1,0,0.1-0.1,0.2-0.1c0-0.2,0-0.4,0-0.8
	c-0.1-0.7-0.2-1.7,0.6-2.8c0.4-0.5,0.8-0.9,1.2-1.1c0.5-0.4,0.8-0.6,1-1.2c0.1-0.4,0.2-0.7,0.3-1c0.2-0.6,0.4-1.1,0.7-1.9
	c0.4-0.7,0.4-1.6,0.5-2.5c0.1-1.2,0.2-2.4,0.8-3.3c0.3-0.4,0.7-0.7,1-0.8c0,0,0,0,0,0c0-0.2,0-0.5,0.2-0.7l0.5-0.9
	c0.9-1.8,1.8-3.4,3.4-5l0.4-0.4c0,0,0,0,0,0c0-0.2-0.1-0.5,0-1c0-0.5,0.1-0.9,0.2-1.3c0.1-0.5,0.2-1,0.2-1.5c0-0.5,0.2-0.9,0.7-1.1
	c1.2-0.3,2.4-1.2,3.4-2.3c0.2-0.2,0.4-0.5,0.6-0.7c0.3-0.4,0.7-0.9,1.2-1.3c0.3-0.2,0.6-0.4,1-0.6c0.2-0.1,0.4-0.2,0.5-0.3
	c0.7-0.7,1.3-2.1,1.8-3.3c0.4-1,0.9-2,1.4-2.8c1-1.6,2-2.5,3.7-3.2c0.3-0.1,0.6-0.2,0.8-0.3c0.3-0.1,0.5-0.1,0.6-0.2
	c0.3-0.2,0.7-0.2,1-0.1c1.3-0.3,1.9,0.2,2.4,0.8c0.1,0.2,0.3,0.3,0.4,0.4c0.3,0.2,0.7,0.2,1.2,0.3c0.8,0.1,2.2,0.3,2.6,1.7
	c0.9,0.5,1.4,1.4,1.7,2.1c0.2,0.3,0.3,0.6,0.4,0.8c0.3,0.4,0.7,0.7,1.2,0.9c0.4,0.2,0.8,0.5,1.2,0.8c1.2,1.1,1.5,2.3,1.9,3.3
	c0.2,0.6,0.3,1.1,0.6,1.6c0,0,0.2,0.1,0.3,0.2c0.3,0.2,0.6,0.4,0.8,0.8c0.3,0.5,0.3,0.9,0.3,1.2c0,0.1,0,0.2,0,0.3
	c0.2,0.5,0.5,0.8,1,1.2c0.4,0.4,0.9,0.8,1.3,1.5c0.5,0.9,0.4,2.2,0.3,3.3c0,0.3,0,0.6,0,0.9c0,0.6,0,1.2,0,1.9c0,1.2-0.1,2.4,0,3.6
	c0.1,0.9,0.4,1.5,0.8,2.3c0.2,0.4,0.4,0.7,0.6,1.2c0.2,0.4,0.2,0.7,0.2,1c0,0.1,0,0.1,0,0.2c0,0.1,0.2,0.3,0.4,0.5
	c0.2,0.3,0.5,0.6,0.7,1c0.7,1.5,0.6,2.3,0.4,3.5c0,0,0,0,0,0c1.5,0.7,2.2,1.6,2.5,4c0.1,0.6,0,1.4-0.1,2.1c-0.1,0.7-0.2,1.6,0,2.1
	c0.1,0.1,0.5,0.4,0.7,0.6c0.5,0.4,0.8,0.6,0.9,0.9c0.1,0.2,0.3,0.3,0.4,0.5c0.6,0.8,1.4,1.6,1.7,2.6c0.4,1.1,0.2,2.1,0,3.1
	c-0.1,0.4-0.1,0.7-0.1,1.1c1.8,0.5,2.4,1.4,2.5,3.6l0,0.4c0.1,1.1,0.2,2.3-0.1,3.3c-0.1,0.5-0.3,0.9-0.5,1.2
	c-0.1,0.2-0.2,0.4-0.2,0.5c-0.1,0.3,0.1,0.7,0.2,1.1c0,0.2,0.1,0.3,0.1,0.5c0.4,1.9,0.7,3.8,1,6.1c0,0.3,0.1,0.6,0.1,0.9
	c0.2,1.7,0.4,3-1,4.6c-0.2,0.3-0.5,0.5-0.7,0.8c-0.6,0.7-1.2,1.2-1.5,2l-0.1,0.3c-0.7,1.6-1,1.8-2.9,2.3l-0.5,0.1
	c-2.5,0.7-5.1,1-7.5,0.8c-1-0.1-1.2,0-2,0.4l-0.4,0.1C221.1,214.2,220,214.3,219,214.3z M215.7,212.2c0.6,0,1.2,0,1.7,0.1
	c1.4,0.1,2.8,0.2,4-0.3l0.4-0.1c1.1-0.4,1.5-0.6,2.9-0.5c2.3,0.1,4.6-0.1,6.9-0.8l0.5-0.1c1.2-0.3,1.2-0.3,1.6-1.2l0.1-0.3
	c0.5-1,1.2-1.8,1.9-2.5c0.2-0.2,0.4-0.5,0.6-0.7c0.7-0.8,0.7-1.4,0.5-3c0-0.3-0.1-0.6-0.1-0.9c-0.2-2.2-0.5-4-0.9-5.8
	c0-0.1-0.1-0.3-0.1-0.4c-0.2-0.6-0.4-1.3-0.2-2.1c0.1-0.4,0.3-0.7,0.5-1.1c0.1-0.2,0.3-0.4,0.3-0.6c0.2-0.8,0.1-1.8,0-2.8l0-0.4
	c-0.1-1.6-0.1-1.6-1.7-1.9c-0.4-0.1-0.7-0.4-0.8-0.8c-0.1-0.8,0-1.7,0.1-2.4c0.1-0.8,0.3-1.5,0-2.1c-0.2-0.6-0.8-1.3-1.4-2
	c-0.2-0.2-0.3-0.4-0.5-0.6c-0.1-0.1-0.4-0.4-0.7-0.6c-0.7-0.6-1-0.9-1.2-1.2c-0.5-0.9-0.3-2.1-0.2-3.3c0.1-0.6,0.1-1.2,0.1-1.6
	c-0.2-1.9-0.6-2.1-2-2.6c-0.4-0.2-0.7-0.6-0.6-1.1c0.1-0.3,0.1-0.6,0.2-0.8c0.2-1,0.2-1.2-0.2-2.3c-0.1-0.2-0.2-0.4-0.4-0.6
	c-0.2-0.3-0.5-0.6-0.6-0.9c-0.2-0.4-0.2-0.7-0.2-1c0-0.1,0-0.2,0-0.2c-0.2-0.4-0.4-0.7-0.5-1c-0.5-0.9-1-1.8-1.1-3.2
	c-0.1-1.3-0.1-2.6,0-3.8c0-0.6,0-1.2,0-1.8c0-0.3,0-0.6,0-1c0-0.7,0.1-1.8-0.1-2.3c-0.2-0.4-0.5-0.6-0.8-0.9c-0.5-0.4-1.1-1-1.5-1.9
	c-0.1-0.4-0.2-0.7-0.2-0.9c0-0.2,0-0.2,0-0.3c0,0-0.2-0.1-0.2-0.2c-0.3-0.2-0.6-0.5-0.8-0.9c-0.4-0.7-0.6-1.3-0.7-1.9
	c-0.3-1-0.5-1.7-1.3-2.4c-0.2-0.2-0.5-0.4-0.8-0.5c-0.6-0.3-1.3-0.7-1.8-1.5c-0.3-0.4-0.5-0.7-0.6-1.1c-0.3-0.7-0.6-1.2-1-1.3
	c-0.4-0.1-0.7-0.4-0.8-0.9c-0.1-0.5-0.1-0.5-1-0.6c-0.6-0.1-1.3-0.2-2-0.6c-0.5-0.3-0.8-0.6-1-0.9c0-0.1-0.1-0.1-0.1-0.2
	c0,0-0.2,0-0.4,0.1c-0.2,0.1-0.4,0.1-0.6,0c-0.3,0.1-0.6,0.2-0.8,0.2c-0.2,0-0.4,0.1-0.5,0.1c-1.3,0.6-2,1.2-2.8,2.5
	c-0.4,0.7-0.8,1.6-1.2,2.5c-0.6,1.4-1.3,2.9-2.2,3.9c-0.3,0.4-0.8,0.6-1.1,0.7c-0.2,0.1-0.4,0.2-0.5,0.3c-0.3,0.2-0.6,0.6-0.8,1
	c-0.2,0.3-0.5,0.6-0.7,0.9c-1.1,1.2-2.3,2.1-3.6,2.6c0,0.5-0.1,1-0.2,1.4c-0.1,0.3-0.2,0.7-0.2,1c0,0.4,0,0.5,0,0.5
	c0.3,0.8-0.1,1.2-0.6,1.7l-0.4,0.4c-1.4,1.4-2.1,2.8-3,4.5l-0.4,0.8c0,0.3,0,0.7-0.2,1c-0.2,0.3-0.5,0.5-0.7,0.6
	c-0.1,0.1-0.3,0.2-0.3,0.2c-0.4,0.6-0.4,1.5-0.5,2.4c-0.1,1.1-0.2,2.2-0.7,3.3c-0.3,0.6-0.4,1-0.6,1.6c-0.1,0.3-0.2,0.7-0.4,1
	c-0.4,1.1-1.1,1.6-1.7,2c-0.3,0.2-0.6,0.5-0.9,0.8c-0.3,0.4-0.3,0.7-0.2,1.3c0.1,0.5,0.1,1.1-0.1,1.8c-0.2,0.4-0.5,0.7-0.7,0.9
	c0,0-0.1,0.1-0.1,0.1c0,0.1,0,0.3,0,0.5c0,0.3,0,0.7-0.2,1.1c-0.2,0.6-0.6,1.2-0.9,1.7c-0.1,0.2-0.3,0.4-0.4,0.7
	c-1.2,2.2-1.6,5.1-1.1,7.5c0.4,1.9,0.4,2.9-0.3,4.6l-0.1,0.2c-0.5,1.2-0.7,1.6-1.8,2.5c-0.2,0.2-0.5,0.4-0.7,0.5
	c-0.5,0.3-1.1,0.8-1.1,1.1c0,0.5-0.3,0.9-0.8,1c-0.5,0.1-0.7,0.6-0.9,1.9c0,0.3-0.1,0.6-0.2,0.9c-0.3,1.3,0.1,2.8,0.5,4.2l0.2,0.6
	c0.1,0.2,0.2,0.5,0.2,0.7c0.2,0.4,0.3,0.9,0.4,1.4c0,0.4-0.2,0.7-0.3,1c-0.1,0.3-0.2,0.3-0.1,0.4c0.3,1,2,2.2,3.4,2.7
	c0.8,0.3,1.8,0.3,2.8,0.3c0.7,0,1.4,0,2,0.1c0.8,0.1,1.5,0.4,2.2,0.7c0.6,0.2,1.1,0.4,1.6,0.5c0.7,0.1,1.5,0.1,2.3,0
	c0.5,0,0.9,0,1.4,0c1.3,0,2.6-0.1,3.9-0.2c1.8-0.1,3.6-0.3,5.4-0.1c0.8,0.1,1.5,0.1,2.3,0.2c1.7,0.2,3.3,0.4,5,0.2
	c1.7-0.2,3.4,0,5,0.1C213.4,212.1,214.6,212.2,215.7,212.2C215.7,212.2,215.7,212.2,215.7,212.2z"/>
<g>
	<path class="st0" d="M132.2,201c-0.6,0-1-0.4-1-1v-49.3h-19.3v47.9c0,0.6-0.4,1-1,1s-1-0.4-1-1v-48.9c0-0.6,0.4-1,1-1h21.3
		c0.6,0,1,0.4,1,1V200C133.2,200.5,132.7,201,132.2,201z"/>
</g>
<g>
	<path class="st0" d="M86.2,151.7c-0.5,0-0.9-0.3-1-0.8c-0.1-0.5,0.1-0.9,0.5-1.1l25-11.9v-0.1c0-0.6,0.4-1,1-1s1,0.4,1,1v0.8
		c0,0.4-0.2,0.7-0.6,0.9L91,149.5l19.6-0.8l21.2-8.7c0.5-0.2,1.1,0,1.3,0.5c0.2,0.5,0,1.1-0.5,1.3l-21.3,8.7c-0.1,0-0.2,0.1-0.3,0.1
		L86.2,151.7C86.2,151.7,86.2,151.7,86.2,151.7z"/>
</g>
<g>
	<path class="st0" d="M58.6,91.8c-0.4,0-0.8-0.3-1-0.7c-0.1-0.5,0.2-1.1,0.7-1.2l44-12.3c0.5-0.1,1.1,0.2,1.2,0.7
		c0.1,0.5-0.2,1.1-0.7,1.2l-44,12.3C58.8,91.8,58.7,91.8,58.6,91.8z"/>
</g>
<g>
	<path class="st0" d="M87.2,198.2c-0.6,0-1-0.4-1-1v-46.9c0-0.6,0.4-1,1-1s1,0.4,1,1v46.9C88.2,197.7,87.7,198.2,87.2,198.2z"/>
</g>
<g>
	<path class="st0" d="M100,140.4c-0.6,0-1-0.4-1-1V79.2c0-0.6,0.4-1,1-1s1,0.4,1,1v60.2C101,140,100.6,140.4,100,140.4z"/>
</g>
<g>
	<path class="st0" d="M58.6,145.2c-0.5,0-0.9-0.4-1-0.9c-0.1-0.5,0.3-1,0.9-1.1l53.1-5.7c0.6-0.1,1,0.3,1.1,0.9
		c0.1,0.5-0.3,1-0.9,1.1l-53.1,5.7C58.7,145.2,58.7,145.2,58.6,145.2z"/>
</g>
<g>
	<path class="st0" d="M58.6,127.1c-0.5,0-0.9-0.4-1-0.9c-0.1-0.5,0.3-1.1,0.9-1.1l41.4-5.5c0.6-0.1,1.1,0.3,1.1,0.9
		c0.1,0.5-0.3,1.1-0.9,1.1l-41.4,5.5C58.7,127.1,58.7,127.1,58.6,127.1z"/>
</g>
<g>
	<path class="st0" d="M97.1,141.1c-0.6,0-1-0.4-1-1V121c0-0.6,0.4-1,1-1s1,0.4,1,1v19.1C98.1,140.6,97.6,141.1,97.1,141.1z"/>
</g>
<g>
	<path class="st0" d="M94.2,141.7c-0.6,0-1-0.4-1-1v-19.1c0-0.6,0.4-1,1-1s1,0.4,1,1v19.1C95.2,141.2,94.8,141.7,94.2,141.7z"/>
</g>
<g>
	<path class="st0" d="M91.1,141.7c-0.6,0-1-0.4-1-1v-19.1c0-0.6,0.4-1,1-1s1,0.4,1,1v19.1C92.1,141.2,91.7,141.7,91.1,141.7z"/>
</g>
<g>
	<path class="st0" d="M88.2,142.3c-0.6,0-1-0.4-1-1v-19.1c0-0.6,0.4-1,1-1s1,0.4,1,1v19.1C89.2,141.8,88.7,142.3,88.2,142.3z"/>
</g>
<g>
	<path class="st0" d="M85.2,142.8c-0.6,0-1-0.4-1-1v-19.1c0-0.6,0.4-1,1-1s1,0.4,1,1v19.1C86.2,142.3,85.7,142.8,85.2,142.8z"/>
</g>
<g>
	<path class="st0" d="M82.2,142.9c-0.6,0-1-0.4-1-1v-19.1c0-0.6,0.4-1,1-1s1,0.4,1,1v19.1C83.2,142.4,82.7,142.9,82.2,142.9z"/>
</g>
<g>
	<path class="st0" d="M79.3,143.3c-0.6,0-1-0.4-1-1v-19.1c0-0.6,0.4-1,1-1s1,0.4,1,1v19.1C80.3,142.8,79.9,143.3,79.3,143.3z"/>
</g>
<g>
	<path class="st0" d="M76.4,143.6c-0.6,0-1-0.4-1-1v-19.1c0-0.6,0.4-1,1-1s1,0.4,1,1v19.1C77.4,143.2,76.9,143.6,76.4,143.6z"/>
</g>
<g>
	<path class="st0" d="M73.5,144c-0.6,0-1-0.4-1-1V124c0-0.6,0.4-1,1-1s1,0.4,1,1V143C74.5,143.6,74.1,144,73.5,144z"/>
</g>
<g>
	<path class="st0" d="M70.4,144c-0.6,0-1-0.4-1-1V124c0-0.6,0.4-1,1-1s1,0.4,1,1V143C71.4,143.6,71,144,70.4,144z"/>
</g>
<g>
	<path class="st0" d="M67.3,144.3c-0.6,0-1-0.4-1-1V125c0-0.6,0.4-1,1-1s1,0.4,1,1v18.3C68.3,143.8,67.8,144.3,67.3,144.3z"/>
</g>
<g>
	<path class="st0" d="M64.4,145c-0.6,0-1-0.4-1-1V125c0-0.6,0.4-1,1-1c0.6,0,1,0.4,1,1V144C65.4,144.6,65,145,64.4,145z"/>
</g>
<g>
	<path class="st0" d="M61.6,144.9c-0.6,0-1-0.4-1-1v-18.3c0-0.6,0.4-1,1-1s1,0.4,1,1v18.3C62.6,144.4,62.1,144.9,61.6,144.9z"/>
</g>
<g>
	<path class="st0" d="M4.5,220C4.5,220,4.5,220,4.5,220c-0.6,0-1-0.5-1-1L7.3,89.1l-2.2-2.8C5,86.2,5,86,4.9,85.9L2.1,75.7H1.6
		c-0.6,0-1-0.4-1-1v-2.3c0-0.2,0.1-0.5,0.2-0.6L7,64.2v-2c0-0.6,0.4-1,1-1h5.8c0.6,0,1,0.4,1,1v2.2l6.8,7.1c0.2,0.2,0.3,0.4,0.3,0.7
		v1.7c0,0.6-0.4,1-1,1h-0.5l-3.7,11c-0.1,0.2-0.2,0.3-0.3,0.4l-3.2,2.7l-3.1,129.5c0,0.6-0.5,1-1,1c-0.6,0-1-0.5-1-1l3.1-129.9
		c0-0.3,0.1-0.6,0.4-0.7l3.3-2.8l3.8-11.5c0.1-0.4,0.5-0.7,0.9-0.7h0.2v-0.3l-6.8-7.1c-0.2-0.2-0.3-0.4-0.3-0.7v-1.6H9v1.3
		C9,64.7,9,65,8.8,65.2l-6.2,7.5v1h0.3c0.4,0,0.8,0.3,1,0.7l3,10.8l2.3,3c0.1,0.2,0.2,0.4,0.2,0.6L5.5,219.1
		C5.5,219.6,5.1,220,4.5,220z"/>
</g>
<g>
	<path class="st0" d="M1.6,73.3c-0.5,0-1-0.4-1-1c0-0.6,0.4-1,1-1l19.3-0.1c0,0,0,0,0,0c0.5,0,1,0.4,1,1c0,0.6-0.4,1-1,1L1.6,73.3
		C1.6,73.3,1.6,73.3,1.6,73.3z"/>
</g>
<g>
	<path class="st0" d="M13.8,65.8C13.8,65.8,13.8,65.8,13.8,65.8L8,65.5c-0.6,0-1-0.5-0.9-1c0-0.6,0.5-1,1-0.9l5.8,0.3
		c0.6,0,1,0.5,0.9,1C14.8,65.4,14.3,65.8,13.8,65.8z"/>
</g>
<g>
	<path class="st0" d="M10.9,63.2c-0.6,0-1-0.4-1-1v-2.7c0-0.6,0.4-1,1-1s1,0.4,1,1v2.7C11.9,62.7,11.5,63.2,10.9,63.2z"/>
</g>
<g>
	<path class="st0" d="M15.8,86.6L15.8,86.6l-9.9,0c-0.6,0-1-0.4-1-1s0.4-1,1-1h0l9.9,0c0.6,0,1,0.4,1,1S16.3,86.6,15.8,86.6z"/>
</g>
<g>
	<path class="st0" d="M20.2,74.9H1.6c-0.6,0-1-0.4-1-1s0.4-1,1-1h18.6c0.6,0,1,0.4,1,1S20.7,74.9,20.2,74.9z"/>
</g>
<g>
	<path class="st0" d="M59.2,107.4c0.1,0.1,0.3,0.2,0.4,0.3V86.9c0-0.6-0.4-1-1-1s-1,0.4-1,1v20.4C58.1,107.1,58.7,107.1,59.2,107.4z
		"/>
	<path class="st0" d="M160.8,201.3l-101.2-6.4v-83.6c-0.5,0.4-1.3,0.4-2,0.4v23.8c0.4,1.9,0.4,3.9,0.4,5.2c-0.1,0-0.2,0-0.4,0.1
		v10.1c0.9,1.1,1.5,2.6,1.9,3.5c-0.7,0.1-1.3,0.3-1.9,0.6v40.9c0,0.5,0.4,1,0.9,1l102.1,6.5c0,0,0,0,0.1,0c0.5,0,1-0.4,1-0.9
		C161.8,201.8,161.3,201.4,160.8,201.3z"/>
</g>
<g>
	<path class="st0" d="M38.9,178.4c-0.1,0-0.2,0-0.3,0l-0.2-0.1c-0.9-0.3-1.8-0.6-2.8-0.5c-0.5,0.1-0.9-0.2-1.1-0.7
		c-0.6-1.8-0.7-1.8-1.4-2c-0.4-0.1-1.1-0.2-1.9-0.6l-0.2-0.1c-1.2-0.6-2.2-1-3.4-2.1c0,0-0.1,0-0.1,0c-0.4,0-1.1-0.1-1.7-0.7
		c-0.7-0.7-1.1-1.9-1.4-3.1c-0.2-0.6-0.4-1.3-0.6-1.7c-1.7-3.4-2.5-4.2-5.7-5.3c-0.3-0.1-0.5-0.3-0.6-0.6c-0.1-0.3-0.1-0.6,0.1-0.9
		c0.6-1,0.9-2.1,0.9-3.7c-1.6-0.6-3.7-2-4.5-3.3c-0.2-0.4-0.1-0.9,0.2-1.3c0.8-0.6,0.5-2,0.2-3.7c-0.2-0.8-0.3-1.5-0.3-2.2
		c0-0.6,0.1-1.3,0.1-2c0.1-1.1,0.3-2.5-0.1-3.1c-0.2-0.3-0.2-0.7,0-1c0.1-0.3,0.4-0.5,0.7-0.5c0.1-1.3,0.5-2.2,1.2-2.7
		c1.1-0.9,2.7-0.7,3.8-0.5c1.1,0.2,4.5,1,6.5,2.1c0.5-1.2,0.5-2.4,0-3.2c-0.6-1-2-1.5-3.6-1.3c-0.4,0.1-0.8-0.1-1-0.5
		c-0.2-0.3-0.2-0.8,0-1.1c0.5-0.8,1.1-1.6,1.4-2.4c-3.9-1.6-3.6-6.5-3.4-9.8c0-0.3,0-0.7,0.1-1c0-0.4,0.3-0.8,0.7-0.9s0.8,0,1.1,0.3
		c0.2,0.2,0.5,0.4,0.8,0.7c0.2,0.1,0.4,0.3,0.5,0.4c0.6-0.3,1.3-0.7,2-1c-0.6-0.5-1.1-1.2-1.3-2.1c-0.2-1.2,0-2.4,0.3-3.4
		c0.2-0.8,0.4-1.6,0.3-2.3c0-0.4,0.2-0.8,0.5-1c1.3-0.7,2.7-0.7,3.8-0.1c0.8,0.4,1.3,1.1,1.5,2c1,0,2.2,0.1,3.2,0
		c-0.4-1.2-1-1.9-1.8-2.7c-1.2-1.3-2.6-2.8-1.8-6.1c0.2-0.8,0.4-1.6,0.7-2.4c0.5-1.7,1-3.4,1.1-5.2c0-0.4,0.2-0.7,0.6-0.9
		c0.3-0.2,0.7-0.1,1,0.1c0.7,0.5,1.5,1,2.4,1.6c1,0.6,2.1,1.3,3,2c0.2-0.2,0.4-0.5,0.6-0.7c0.2-0.2,0.4-0.4,0.6-0.6
		c0.2-0.3,0.7-0.4,1-0.3c0.4,0.1,0.7,0.4,0.7,0.8c0,0.1,0.1,0.3,0.2,0.5c0,0,0,0.1,0.1,0.1c0.3,0,0.6,0,0.8,0c0.3-0.7,1-1.4,1.8-2
		c1.1-0.6,2.7-1.1,4-0.6c1.1,0.4,1.9,1.4,2.5,2.8c0.6,1.6,0.7,3.5,0.3,4.9c0.5,0.7,0.6,1.7,0.6,2.5c1,0.3,1.4,1.2,1.7,1.7
		c0.3,0.6,0.5,0.8,0.9,0.9c0.2,0,0.8-0.3,1.2-0.6c1-0.6,2.4-1.4,4-0.7c1.1,0.5,1.9,1.6,2,2.8c0.1,1.1-0.4,2.2-1.4,2.8
		c-0.9,0.6-2,0.6-2.9,0.6c-0.8,0-1.6,0-2.1,0.3c-1.8,1.2-1.2,3.1,0,6.1c0.2,0.6,0.5,1.2,0.6,1.7c0.8,2.4,0.1,4-0.5,5.4
		c-0.5,1.3-1,2.4-0.6,4.1c0.8,0.1,1.5,0.5,2,1.1c2.3,2.4,2.2,7.7,2.2,9.3c0,0.5-0.4,0.9-0.8,0.9c-1.7,0.3-3.8,1.7-3.8,3.1
		c0,0.5-0.5,1-1,1c-0.2,0-0.3,0-0.4-0.1c-0.2,0.2-0.5,0.4-0.7,0.5c-0.5,0.2-1,0.3-1.6,0.2c0.5,0.7,1.1,1.2,1.8,1.8
		c0.5,0.3,0.9,0.7,1.3,1.1c0.8-0.7,1.6-0.7,2.1-0.7c2.6,0.4,4.3,4.7,4.6,5.5c0.1,0.3,0.1,0.6-0.1,0.8c-0.2,0.3-0.4,0.4-0.7,0.5
		c-4,0.6-4.7,4.3-4.7,6.5c0,0.5-0.3,0.9-0.8,1c-1.1,0.2-2,0.7-2.8,1.3c0.5,0.9,1.1,2,0.9,3.2c-0.4,3.3-3.1,3.1-5.1,2.9
		c-0.3,0-0.7-0.1-1-0.1c-0.3,1.7-1.9,2.7-3.3,3.6c-1.9,1.2-3,2-3,3.6c0,0.3-0.1,0.6-0.4,0.8C39.4,178.3,39.1,178.4,38.9,178.4z
		 M36.2,175.8c0.7,0,1.3,0.1,1.9,0.3c0.5-2,2.3-3.1,3.8-4c1.8-1.1,2.5-1.7,2.4-2.7c0-0.3,0-0.6,0.2-0.8s0.4-0.4,0.7-0.4
		c0.8,0,1.5,0,2.2,0.1c2.4,0.2,2.8,0,2.9-1.1c0.1-0.7-0.5-1.7-1-2.5l-0.1-0.2c-0.2-0.4-0.2-0.9,0.1-1.2c0.9-1,2.2-1.8,3.6-2.2
		c0.3-3.8,2.2-6.4,5.2-7.4c-0.7-1.6-1.8-3.1-2.5-3.2c-0.4-0.1-0.8,0.4-1.1,0.8c-0.2,0.3-0.5,0.4-0.8,0.4c0,0,0,0,0,0
		c-0.3,0-0.6-0.2-0.8-0.4c-0.5-0.6-1.1-1.1-1.7-1.6c-0.6-0.5-1.4-1-2-1.8c-1,0.5-1.5,1.3-2,2.3c-0.8,1.3-1.6,2.9-3.8,3.6
		c-0.3,0.1-0.6,0.1-0.8-0.1c-0.3-0.2-0.4-0.4-0.5-0.7c-0.5-3.4,1.5-5.1,3.1-6.5c1-0.8,1.9-1.6,2.3-2.7c0.1-0.3,0.3-0.5,0.6-0.6
		c0.3-0.1,0.6,0,0.9,0.1c1.2,0.8,2.1,1,2.4,0.8c0.4-0.2,0.6-0.9,0.6-1.3c0.1-0.5,0.5-0.9,1-0.8c0.1,0,0.2,0,0.3,0.1
		c0.9-1.1,2.3-1.9,3.6-2.3c0-2.6-0.4-5.7-1.6-7.1c-0.4-0.4-0.8-0.6-1.4-0.6c-0.5,0-0.9-0.3-1-0.7c-0.8-2.8-0.1-4.6,0.5-6.1
		c0.5-1.3,1-2.3,0.4-4c-0.2-0.5-0.4-1-0.6-1.6c-1-2.6-2.5-6.3,0.8-8.5c1.1-0.7,2.3-0.7,3.3-0.7c0.7,0,1.3,0,1.7-0.2
		c0.5-0.3,0.5-0.7,0.5-1c0-0.5-0.4-0.9-0.8-1.1c-0.6-0.3-1.2,0-2.1,0.6c-0.8,0.5-1.7,1-2.7,0.8c-1.4-0.3-1.9-1.3-2.2-1.9
		c-0.4-0.7-0.4-0.8-1-0.8c-0.3,0-0.6-0.1-0.8-0.3c-0.2-0.2-0.3-0.5-0.3-0.8c0.1-0.5,0.2-1.9-0.2-2.2c-0.4-0.3-0.5-0.8-0.3-1.2
		c0.4-0.9,0.4-2.7-0.1-4c-0.3-0.9-0.8-1.5-1.4-1.7c-0.5-0.2-1.4,0-2.2,0.5c-0.6,0.4-1.1,0.9-1.1,1.3c-0.1,0.5-0.5,1-1.1,0.9
		c-0.1,0-0.1,0-0.2,0c-0.2,0.1-0.3,0.1-2,0c-0.4,0-0.7-0.2-0.9-0.6c-0.2,0.2-0.4,0.5-0.5,0.8c-0.1,0.3-0.4,0.5-0.7,0.6
		c-0.3,0.1-0.7-0.1-0.9-0.3c-0.9-0.9-2.2-1.7-3.5-2.5c-0.4-0.2-0.8-0.5-1.1-0.7c-0.2,1.4-0.6,2.7-1,4c-0.2,0.8-0.5,1.5-0.7,2.2
		c-0.6,2.2,0.2,3,1.3,4.3c1,1.1,2.2,2.4,2.5,4.8c0.1,0.5-0.3,1-0.8,1.1c-1.8,0.3-3.8,0.2-5.5,0.1c-0.5,0-0.9-0.4-0.9-0.9
		c0-0.4-0.2-1-0.7-1.3c-0.4-0.2-0.8-0.2-1.4-0.1c0,0.8-0.2,1.5-0.4,2.2c-0.2,0.9-0.4,1.8-0.3,2.6c0.1,0.8,0.8,1.2,1.8,1.7
		c1.1,0.6,2.6,1.5,2.3,3.5c-0.1,0.5-0.5,0.8-1,0.8c-0.5,0-0.9-0.3-1-0.8c-0.1-0.6-0.3-1-0.6-1.1c-0.8-0.4-2.6,0.7-3.5,1.2l-0.3,0.2
		c-0.4,0.2-1,0.1-1.3-0.2c-0.1-0.1-0.2-0.2-0.3-0.3c-0.2,3.7,0.1,6.5,2.9,7.1c0.5,0.1,0.9,0.6,0.8,1.1c-0.2,0.9-0.5,1.8-1,2.5
		c1.6,0.2,2.8,1,3.6,2.2c1.1,1.8,0.9,4.2-0.5,6.3c-0.2,0.2-0.4,0.4-0.7,0.4c-0.3,0-0.6-0.1-0.8-0.3c-0.8-0.7-3.9-1.7-6.5-2.3
		c-1.1-0.2-1.8-0.2-2.1,0.1c-0.3,0.3-0.5,1-0.5,2.1c0,0.3-0.2,0.6-0.4,0.8c0.2,1,0.1,2.1-0.1,3.1c-0.1,0.7-0.1,1.3-0.1,1.8
		c0,0.5,0.2,1.2,0.3,1.9c0.3,1.6,0.7,3.5-0.2,4.9c0.8,0.8,2.5,1.8,3.6,2.1c0.4,0.1,0.7,0.5,0.7,1c0,1.7-0.3,3.1-0.7,4.3
		c3,1.1,4.1,2.5,5.8,5.9c0.3,0.5,0.5,1.2,0.7,2c0.3,0.9,0.6,1.9,1,2.4c0,0,0.2,0.1,0.4,0.1c0.3,0,0.8,0.1,1.2,0.4
		c1,0.9,1.7,1.3,2.9,1.8l0.2,0.1c0.6,0.3,1.1,0.4,1.5,0.5C34.9,173.4,35.5,173.9,36.2,175.8z M45.7,148.8c-0.8,0.7-1.4,1.4-1.6,2.3
		c0.6-0.5,0.9-1.2,1.4-1.9C45.5,149,45.6,148.9,45.7,148.8z M48.8,145.6c-0.1,0.1-0.1,0.2-0.2,0.3c0.1-0.1,0.3-0.1,0.4-0.1
		C49,145.7,48.9,145.7,48.8,145.6z"/>
</g>
<g>
	<line class="st2" x1="37.8" y1="176.8" x2="37.8" y2="203.8"/>
	<path class="st0" d="M37.8,204.8c-0.6,0-1-0.4-1-1v-27c0-0.6,0.4-1,1-1s1,0.4,1,1v27C38.8,204.3,38.3,204.8,37.8,204.8z"/>
</g>
<path class="st0" d="M174.3,206c0-0.4-0.1-0.6-0.2-1l-12.3-1.3V70.6c0-0.3-0.1-0.6-0.4-0.8l-5.9-4.4c-0.4-0.3-1.1-0.2-1.4,0.2
	c-0.3,0.4-0.2,1.1,0.2,1.4l5.5,4.1v133.6c0,0.5,0.4,0.9,0.9,1l13.3,1.4C174,206.6,174.3,206.3,174.3,206z"/>
<path class="st0" d="M377.3,99.3L318.7,3.1c-0.3-0.4-0.8-0.6-1.3-0.4l-96.6,46.2c-0.3,0.2-0.6,0.5-0.6,0.9v90.5
	c0.8,1.2,0.8,2.5,1.5,3.8c0.2,0.4,0.9,0.6,1.1,1c0.3,0.5,0.1,0.9,0.3,1.4c0,0,0,0.1,0,0.1l153.3,11.9c0,0,0.1,0,0.1,0
	c0.3,0,0.5-0.1,0.7-0.3c0.2-0.2,0.3-0.5,0.3-0.7V99.8C377.5,99.6,377.4,99.5,377.3,99.3z M375.5,156.4l-153.3-11.9V50.4l95.2-45.5
	l58.1,95.2V156.4z"/>
<path class="st0" d="M177,192.9c0.6-0.5,0.9-0.8,1.1-1.2l-6.7-0.3v-37.9l20.1-0.6c0.2-0.3,0.5-0.6,0.8-0.9c1.1-1,0.9-0.8,0.8-1.2
	l-22.7,0.7c-0.5,0-1,0.5-1,1v39.8c0,0.5,0.4,1,0.9,1l5.7,0.3C176.4,193.3,176.8,193.1,177,192.9z"/>
<path class="st0" d="M186.1,165c0.9-1.7,0.4-4.1,1.2-5.6v-7.5c0-0.6-0.4-1-1-1s-1,0.4-1,1v15C185.6,166.3,185.7,165.7,186.1,165z"/>
<path class="st0" d="M182.2,173.6c0.2-0.5,0.1-0.9,0.1-1.4H170c-0.6,0-1,0.4-1,1s0.4,1,1,1h11.7
	C181.9,174.1,182.1,173.9,182.2,173.6z"/>
</svg>
