<svg version="1.1" id="Layer_1" xmlns="http://www.w3.org/2000/svg" xmlns:xlink="http://www.w3.org/1999/xlink" x="0px" y="0px"
	 viewBox="0 0 576.3 1471" style="enable-background:new 0 0 576.3 1471;" xml:space="preserve">
<path d="M577.4,196.1c-3.4-5.9-35.5-8.6-40.4-8.1c-8.9,0.8-12.7-0.4-17.1-1.7c-3.9-1.2-8.4-2.6-17.1-2.7
	c-17.2-0.2-34.8-0.8-51.8-1.5c-20.6-0.8-42-1.5-63-1.5c-5.5,0-11,0.2-16.5,0.4v3c5.5-0.2,11-0.4,16.5-0.4c21,0,42.3,0.8,62.9,1.5
	c17,0.6,34.6,1.3,51.9,1.5c8.3,0.1,12.4,1.3,16.3,2.5c4.5,1.4,8.7,2.7,18.2,1.9c7.3-0.6,35.5,3.1,37.6,6.7c0.3,0.5,0.8,0.7,1.3,0.7
	c0.3,0,0.5-0.1,0.8-0.2C577.5,197.7,577.8,196.8,577.4,196.1z"/>
<g>
	<path d="M550.1,985.3c-0.7,0-1.3-0.5-1.5-1.1c-31.2-127.4-124-207.1-198.5-271.1c-25.5-21.9-49.6-42.6-68.1-62.7
		c-34-36.7-53.2-75.2-58.8-117.6c-4.6-35,0.9-65.9,7.5-94.1c8.3-35.2,36.7-69.7,64.2-103c12.6-15.3,24.5-29.8,34-43.7
		c28.6-42.1,27.1-81.1,23.6-106.7c-0.1-0.8,0.5-1.6,1.3-1.7c0.8-0.1,1.6,0.5,1.7,1.3c3.6,26.2,5.1,65.9-24.1,108.8
		c-9.5,14-21.5,28.6-34.2,43.9c-27.3,33.1-55.5,67.3-63.6,101.8c-6.6,27.9-12,58.5-7.4,93c5.5,41.8,24.5,79.8,58.1,116
		c18.4,19.9,42.5,40.6,67.9,62.4c74.9,64.3,168,144.3,199.5,272.7c0.2,0.8-0.3,1.6-1.1,1.8C550.3,985.3,550.2,985.3,550.1,985.3z"/>
</g>
<g>
	<path d="M174.2,843c-3.8-5.8-7.7-11.6-11.6-17.5l-1.2,3.6c3.5,5.2,6.9,10.4,10.4,15.6c35.8,53.7,66.6,100,70.9,139.3
		c0.1,0.8,0.7,1.3,1.5,1.3c0.1,0,0.1,0,0.2,0c0.8-0.1,1.4-0.8,1.3-1.7C241.2,943.7,210.1,897,174.2,843z"/>
	<path d="M337.1,184.8c-0.1-0.8-0.9-1.4-1.7-1.2c-0.8,0.1-1.4,0.9-1.2,1.7c1,6.1,2.7,28.1-14.9,56.2
		c-18.7,29.8-51.9,55.1-98.8,75.1C165,340.3,122,371.4,92.6,409c-29.8,38.1-38.7,74.2-41,97.8c-0.2,1.6-0.4,3.6-0.7,5.9
		c-2,14.7-5.6,41.9,2.8,85.4c4.5,23.5,12,48.4,22.3,74.6c1.3-0.7,2.2-1.2,2.7-1.4c-10.2-25.9-17.5-50.5-22-73.8
		c-8.3-43-4.7-69.9-2.7-84.4c0.3-2.3,0.6-4.3,0.7-6c3.5-36.5,26.9-127.9,167.1-187.8c47.4-20.3,81.1-45.9,100.1-76.3
		C339.9,214.1,338.1,191.2,337.1,184.8z"/>
</g>
<path d="M88.1,842.1L88.1,842.1l-30.6-3.7L20.6,719l-17.1-1.5c-0.7,0-2.6-0.1-3.3-1.5c-0.3-0.7-0.4-1.7,0.7-3.1
	c2-2.3,59.6-33.5,77.2-43l0.4-0.1l7.4-1.8v-31.7l7-1.3l7.3-4.3h20.8l6.9,4.6l7.1,0.9v30.7h3.9l85.2,42.3l0.2,0.4
	c0.1,0.2,1.2,2.3,0.2,4c-0.4,0.7-1.4,1.6-3.4,1.6c-3.2,0-14.8-0.8-18.6-1.1l-43.8,127.3L88.1,842.1z M59.7,835.7l28.5,3.4l68.3-0.8
	l43.9-127.5l1.2,0.1c0.2,0,15.9,1.1,19.5,1.1c0.7,0,0.9-0.1,0.9-0.2c0-0.1,0-0.4-0.1-0.7l-83.6-41.5h-6.2v-31l-5.2-0.7l-6.7-4.5
	h-19.1l-7,4.1l-5,1v31.6l-9.5,2.3c-28.1,15.2-70,38-75.7,41.9l19.1,1.7L59.7,835.7z"/>
<g>
	<polygon points="88.7,670 88.4,669.7 88.1,669.7 88.1,669.6 86.3,668.1 87.4,666.7 133.6,666.7 133.6,669.7 
		88.9,669.7 	"/>
</g>
<g>
	<polygon points="3,717.2 2.6,714.3 63.7,705.4 201.8,710.8 201.7,713.8 63.8,708.4 	"/>
</g>
<g>
	<polygon points="3.8,714.3 3.2,711.4 64.4,699.1 64.6,699.1 218.9,706.5 218.8,709.5 64.6,702.1 	"/>
</g>
<g>
	<polygon points="64.2,706.8 61.2,706.6 61.6,700.2 94.5,667.6 96.6,669.7 64.5,701.5 	"/>
</g>
<path d="M149.9,831.6c-0.6,0-1-0.1-1.4-0.2H98.5c-1.9,0-3.4-0.6-4.7-1.9c-2.2-2.3-2.4-5.9-2.4-6.6l-6.6-60.1
	c-1-7.4-4.3-31.8-2.8-35.3c1.3-3,1-6.7,1-6.8l-0.1-1.1l1-0.4c11.1-4.5,39-5.6,52.2-5.6l0.1,0c0.2,0,16.4,1,26.3,2.4
	c10.1,1.5,22.2,6,23.6,6.9c2.1,1.3,1.2,9.4,0.7,13.7l-0.1,0.3c-0.3,0.8-27.3,78.7-29.9,87c-1.2,3.9-2.9,6.4-5.1,7.3
	C151.1,831.5,150.5,831.6,149.9,831.6z M86.1,721.5c0,1.6-0.2,4.4-1.3,7c-0.8,2,0.9,18.8,3,33.8l6.7,60.4l0,0.1
	c0,0.8,0.2,3.3,1.5,4.6c0.6,0.6,1.4,0.9,2.5,0.9h50.7l0.3,0.2c0,0,0.5,0.2,1.2-0.1c0.7-0.3,2.1-1.5,3.3-5.4c2.5-8.3,28.1-82,29.8-87
	c0.5-4.3,0.7-9.4,0.4-10.8c-2.1-1-12.9-4.9-22.2-6.3c-9.5-1.4-25-2.4-26-2.4C123.5,716.5,97.4,717.5,86.1,721.5z"/>
<path d="M80.4,830.6c-0.8,0-1.5-0.2-1.8-0.3l-8.8-0.8l-12.5-1.1L26.8,726.8l0.1-0.4c2.4-7.9,11.1-10.6,18.5-12
	c9.3-1.8,21.9,4.8,22.4,5.1l0.6,0.3l3.6,12.7l3.9,28.2c0.3,2.6,7.8,62.7,7.8,66.1c0,1.9-0.8,2.8-1.5,3.2
	C81.7,830.4,81,830.6,80.4,830.6z M59.6,825.6l10.5,0.9l9.2,0.8l0.2,0.1c0.4,0.2,1,0.2,1.2,0.1c0,0,0.1-0.2,0.1-0.7
	c0-2.7-5.6-48.4-7.8-65.7L69.1,733l-3.2-11.1c-2.5-1.2-12.6-5.9-19.9-4.5c-9.5,1.8-14.4,4.8-16.1,9.5L59.6,825.6z"/>
<g>
	
		<rect x="12.7" y="772.5" transform="matrix(0.1232 0.9924 -0.9924 0.1232 838.1121 599.3737)" width="134.3" height="3"/>
</g>
<g>
	
		<rect x="87.5" y="636.2" transform="matrix(1 1.821645e-03 -1.821645e-03 1 1.1619 -0.2003)" width="46.1" height="3"/>
</g>
<g>
	<path d="M106.3,875.9c-6.6,0-16-1.1-17.1-1.9l-0.6-0.4l-1-32.9l3-0.1l0.9,31c2.4,0.4,8.8,1.3,14.8,1.3
		c5.9,0,15.3-1.1,18.7-1.5l1.4-31.3l3,0.1l-1.5,33.9l-1.3,0.2C126.1,874.3,113.8,875.9,106.3,875.9z"/>
</g>
<g>
	
		<rect x="73.6" y="848.1" transform="matrix(0.4409 0.8975 -0.8975 0.4409 809.9682 398.9078)" width="22.3" height="3"/>
</g>
<g>
	<path d="M106.3,883.8c-11.6,0-18.3-1.1-21.5-1.6c-3.4-0.5-5.3-2.7-5.3-5.9c0-1.5,0.5-2.7,1.5-3.6
		c1.7-1.5,4.7-2,9.2-1.5l-0.4,3c-4.6-0.6-6.2,0.2-6.8,0.8c-0.5,0.4-0.5,0.9-0.5,1.3c0,1.2,0.3,2.6,2.8,3c3.1,0.5,9.6,1.5,21,1.5
		c9.9,0,17-0.6,21.2-1.7c2.3-0.7,2.9-1.8,3-2.1c0-1.1-0.1-2.7-4-2.7v-3c3.1,0,6.9,1,7,5.7l0,0.2l0,0.1c0,0.3-0.5,3.3-5.1,4.7
		C123.9,883.2,116.5,883.8,106.3,883.8z"/>
</g>
<g>
	<path d="M108.3,886.6c-0.6,0-1.1,0-1.5,0l-1.1,0c-10.6,0-20.3-0.4-21.4-5.3l2.9-0.7c0.7,3,13.6,3,18.5,3l1.2,0
		c7,0.1,17.6-0.7,19.5-2.7c0.1-0.1,0.1-0.1,0.1-0.2l3-0.3c0.1,0.9-0.2,1.8-0.9,2.5C125.4,886.3,113.1,886.6,108.3,886.6z"/>
</g>
<g>
	<rect x="124.5" y="882.9" width="3" height="588.2"/>
</g>
<g>
	<rect x="88.2" y="883" width="3" height="588"/>
</g>
<path d="M430.2,362.7l-19.1-2.3l-22.8-73.8l-9.7-0.1c-0.4,0-2,0-2.6-1.2c-0.2-0.5-0.4-1.4,0.5-2.5
	c1.2-1.4,30.2-17.2,47.4-26.4l0.4-0.1l4.1-1v-19.4l4.6-0.9l4.5-2.7h13.1l4.3,2.8l4.7,0.6v18.7h1.9l52.3,26l0.2,0.4
	c0.1,0.3,0.8,1.8,0.1,3c-0.3,0.6-1.1,1.2-2.6,1.2c-1.9,0-8.3-0.4-11-0.6l-26.7,77.8L430.2,362.7z M413.4,357.6l17,2.1l41.3-0.5
	l26.8-77.9l1.2,0.1c0.1,0,7.6,0.5,10.8,0.7l-49.7-24.6h-4.2v-19l-2.8-0.4l-4.1-2.7h-11.3l-4.2,2.5l-2.7,0.5v19.3l-6.2,1.5
	c-15.4,8.3-37.6,20.4-44.4,24.5l9.8,0.1L413.4,357.6z"/>
<g>
	<polygon points="458,257.3 430.3,257.3 430.3,256.7 428.7,255.4 429.6,254.3 458,254.3 	"/>
</g>
<g>
	<polygon points="378.2,286.4 377.7,283.5 415.1,278 499.6,281.3 499.4,284.3 415.3,281.1 	"/>
</g>
<g>
	<polygon points="415.4,279.5 412.4,279.5 412.4,277.1 433.8,255.1 435.9,257.1 415.4,278.3 	"/>
</g>
<path d="M467.1,356.2c-0.4,0-0.7-0.1-0.9-0.1h-28c-1.3,0-2.4-0.5-3.3-1.3c-1.5-1.5-1.6-3.8-1.6-4.4l-6.8-61.8l1.1-0.4
	c8.6-3.4,31.1-3.5,32.1-3.5l0.1,0c0.4,0,10.1,0.6,16.1,1.5c6.1,0.9,13.6,3.6,14.7,4.3c0.9,0.5,1.8,1.1-1.1,9.3
	c-0.1,0.4-15.8,46.3-17.4,51.4c-0.8,2.6-1.9,4.2-3.4,4.8C468,356.1,467.5,356.2,467.1,356.2z M429.7,290.5l6.6,59.7l0,0.1
	c0,0.4,0.1,1.7,0.8,2.4c0.2,0.2,0.5,0.4,1.1,0.4h28.7l0.2,0.2c0.2,0,1.1-0.3,2-3c1.6-5.1,16.8-49.6,17.4-51.5c0.8-2.2,1.6-4.8,1.8-6
	c-1.9-0.8-7.8-2.8-12.9-3.6c-5.7-0.8-15.1-1.4-15.8-1.5C452.1,287.6,436.8,288.3,429.7,290.5z"/>
<path d="M423.3,356c-0.6,0-1.2-0.2-1.4-0.3l-3.1-0.9l-4.3-0.7l-18.8-62.6l0.2-0.5c1.2-3.1,2.2-5.1,8.2-6.2
	c5.9-1.1,11.8,1.7,12.1,1.8l0.7,0.3l1.2,8.1c0.8,5.7,7.8,55.9,7.8,58c0,1.4-0.6,2.1-1.2,2.5C424.3,355.9,423.8,356,423.3,356z
	 M416.8,351.5l2.7,0.5l3.3,1c-0.3-3.3-4.8-35.8-7.8-57.4l-0.9-6.4c-1.6-0.6-5.7-2-9.5-1.3c-4.3,0.8-4.9,1.8-5.8,3.8L416.8,351.5z"/>
<g>
	<rect x="384.2" y="319" transform="matrix(0.1232 0.9924 -0.9924 0.1232 690.858 -141.0157)" width="82" height="3"/>
</g>
<g>
	
		<rect x="429.9" y="235.7" transform="matrix(1 1.820480e-03 -1.820480e-03 1 0.4326 -0.8078)" width="28.2" height="3"/>
</g>
<g>
	<path d="M441.4,383.3c-3.7,0-9.9-0.6-10.8-1.2l-0.6-0.4l-0.6-20.4l3-0.1l0.6,18.5c1.6,0.3,5.1,0.7,8.5,0.7
		c3.3,0,8.5-0.6,10.8-0.8l0.8-18.6l3,0.1l-0.9,21.2l-1.3,0.2C453.6,382.3,446,383.3,441.4,383.3z"/>
</g>
<g>
	
		<rect x="421.4" y="365.2" transform="matrix(0.4409 0.8975 -0.8975 0.4409 568.5097 -179.3649)" width="13.6" height="3"/>
</g>
<g>
	<path d="M441.4,388.1c-7.1,0-11.2-0.7-13.2-1c-2.3-0.4-3.7-1.9-3.7-4.2c0-1.1,0.4-2,1.1-2.6c1.2-1.1,3.2-1.4,6.1-1.1
		l-0.4,3c-2.8-0.3-3.6,0.2-3.7,0.3c-0.1,0.1-0.1,0.1-0.1,0.4c0,0.6,0.1,1.1,1.2,1.2c1.9,0.3,5.8,0.9,12.7,0.9c7.5,0,11.1-0.6,12.8-1
		c1-0.3,1.3-0.7,1.4-0.8c0-0.5-0.2-1-1.9-1v-3c3.1,0,4.8,1.4,4.9,4.1l0,0.1l0,0.2c0,0.2-0.3,2.4-3.6,3.4
		C452.2,387.8,447.7,388.1,441.4,388.1z"/>
</g>
<g>
	<path d="M442.7,389.8c-0.4,0-0.7,0-1,0l-0.7,0c-7,0-12.9-0.3-13.6-3.7l2.9-0.7l0,0c0.3,0.6,2.3,1.4,10.4,1.4
		c0.1,0,0.2,0,0.3,0l0.7,0c5.4,0.1,10.7-0.6,11.5-1.5c0,0-0.1,0.2-0.1,0.3l3-0.3c0.1,0.7-0.2,1.4-0.7,2
		C453.4,389.6,446.1,389.8,442.7,389.8z"/>
</g>
<g>
	<path d="M457.7,754.5c-4.6-1-5.8-5.8-5.8-8.2V387h3v359.3c0,0.2,0.1,4.6,3.5,5.3L457.7,754.5z"/>
</g>
<g>
	<path d="M428.4,754.5l-0.6-2.9c2.6-0.5,2-5.1,2-5.1l0-0.2V387.1h3v359.1C433.1,748.7,432.6,753.6,428.4,754.5z"/>
</g>
<g>
	<path d="M68.8,192.5c-12.9,1.1-25.9,1.9-38.8,2c-0.8,0-1.5,0.7-1.5,1.5c0,0.8,0.7,1.5,1.5,1.5c0,0,0,0,0,0
		c12.9-0.1,25.9-0.9,38.8-2V192.5z"/>
	<path d="M330.4,184c-18.7,1.7-38,3.5-57.4,3.5c-14.9,0-30-0.1-44.7-0.2c-29.4-0.2-59.9-0.3-89.8,0.2
		c-17.5,0.3-35.2,1.9-52.4,3.5c-1.2,0.1-2.4,0.2-3.7,0.3v3c1.3-0.1,2.6-0.2,3.9-0.4c17.1-1.6,34.8-3.2,52.2-3.5
		c29.9-0.5,60.3-0.3,89.8-0.2c14.6,0.1,29.8,0.2,44.7,0.2c19.6,0,38.9-1.8,57.7-3.5c11.1-1,22.4-2.1,33.8-2.7v-3
		C353,181.9,341.6,183,330.4,184z"/>
</g>
<path d="M203.5,52.9c-2.2-2.2-5.2-3.4-8.2-3.5c0.1-6.8-4.1-10.8-8.4-12.4c-4.6-1.7-9.5-0.9-12.9,2
	c-1.6-4.9-4.3-8.4-7.9-10.3c-3.5-1.9-7.8-2.3-12.6-1.1c0.2-2.8-0.1-7.3-2.9-9.9c-2.2-2.1-5.4-2.6-9.5-1.7
	c-7.6-10.1-16.1-9.7-23.7-9.3c-9.9,0.5-12.8,5.8-15.5,12.3c-3.7-2.8-9.4-3.5-13.9-1.6c-5,2.2-7.7,7.1-7.5,13.7
	c-6.2-2.1-12.8-1.3-16.9,2.2c-3.7,3.1-5,7.9-3.9,13.6c-5.6,0.7-10.4,3.9-13.1,8.9c-2.4,4.4-2.5,9.4-0.2,13c2,3.2,5.6,5.1,10.4,5.4
	c-2.2,6-0.9,12.1,3.5,15.8c0.9,0.7,2.1,1.4,3.6,1.9c0.6-0.3,1-0.5,1-0.5l3.2-0.8v-0.7c-2.4-0.4-4.7-1.2-5.9-2.2
	c-4.5-3.7-4.1-9.8-1.8-14.3c0.2-0.5,0.2-1-0.1-1.5c-0.3-0.5-0.8-0.7-1.3-0.7c-4.9,0.2-8.4-1.2-10.1-4c-1.7-2.7-1.5-6.5,0.3-10
	c2.4-4.5,7-7.3,12.3-7.4c0.5,0,0.9-0.2,1.2-0.6c0.3-0.4,0.4-0.8,0.2-1.3c-1.5-5.4-0.6-9.6,2.6-12.3c3.8-3.2,10.3-3.5,16-0.9
	c0.5,0.2,1.1,0.2,1.5-0.1c0.4-0.3,0.7-0.9,0.6-1.4c-0.8-6.5,1.2-11.2,5.6-13.1c4.1-1.8,9.5-0.7,12.1,2.4c0.3,0.4,0.9,0.6,1.4,0.5
	c0.5-0.1,1-0.4,1.2-0.9l0.1-0.3c2.9-7.1,4.7-11.7,13.5-12.2c7.4-0.4,15-0.8,21.7,8.9c0.4,0.5,1,0.8,1.6,0.6c3.5-0.9,6.1-0.7,7.7,0.8
	c2.5,2.4,2.1,7.7,1.7,9.6c-0.1,0.5,0.1,1.1,0.5,1.4c0.4,0.4,1,0.5,1.5,0.3c4.8-1.7,9.1-1.6,12.4,0.2c3.4,1.9,5.8,5.6,7.1,11.1
	c0.1,0.6,0.6,1,1.2,1.1c0.6,0.1,1.2-0.1,1.5-0.6c2.7-4,7.7-4.4,11.3-3.1c3.6,1.3,7.1,4.9,6.4,11c-0.1,0.5,0.1,0.9,0.4,1.3
	c0.3,0.3,0.8,0.5,1.3,0.4c2.8-0.4,5.5,0.5,7.6,2.5c2.2,2.2,3.2,5.2,2.9,8.3c-0.3,3-2.3,4.5-3.8,5.2c-3.4,1.6-8.3,1.2-11.7-1
	c-0.6-0.4-1.4-0.3-1.9,0.2c-0.5,0.5-0.5,1.4-0.1,1.9c2.2,2.9,1.4,6.1,0.4,8.3c-2.2,4.6-7.5,8.7-11.6,8.8c-0.1,0-0.2,0-0.3,0
	c-10.8,2.4-22.2-2.1-26.1-7.8c-0.3-0.5-0.9-0.7-1.5-0.6c-0.6,0.1-1.1,0.6-1.2,1.2c-1.6,7.9-3.5,11.6-11.1,12.4
	c-8.7,0.9-15.9-9.7-16-9.8c-0.3-0.5-0.9-0.7-1.5-0.7c-0.6,0.1-1.1,0.5-1.2,1c-0.8,2.6-3.7,9.9-7.1,12.2c-2.4,1.6-4.8,2.5-7.2,2.9
	l4.1,2c1.6-0.6,3.2-1.4,4.7-2.4c3.5-2.3,6.1-7.8,7.4-11.1c2.9,3.5,9.2,9.7,17,8.9c5.4-0.6,10.4-2,13.1-11.9c6,5.8,17.3,8.7,27,6.6
	c5.3-0.2,11.4-4.8,14.1-10.5c1.2-2.6,1.6-5.2,1.1-7.5c3.6,1.1,7.6,0.9,10.7-0.6c3.2-1.5,5.1-4.2,5.5-7.6
	C207.7,59.6,206.3,55.7,203.5,52.9z"/>
<path d="M68.2,156.6L56,155.1l-14-45.4l-5.6-0.1c-0.9,0.1-1.7-0.4-2.1-1.1c-0.2-0.3-0.4-1.2,0.4-2.2
	c0.2-0.3,0.9-1.1,29.3-16.4l0.4-0.1l2.1-0.5v-12l3.2-0.6l2.8-1.7h8.4l2.7,1.8l3.3,0.4v11.4h0.7l32.5,16.1l0.2,0.4
	c0.3,0.6,0.5,1.6,0,2.4c-0.2,0.4-0.8,1-2.1,1c-1.1,0-4.5-0.2-6.3-0.4l-16.5,47.8L68.2,156.6z M58.3,152.4l10,1.2l25-0.3l16.5-48
	l1.2,0.1c0.8,0.1,2.4,0.2,3.9,0.3l-28-13.9h-3V80l-1.4-0.2L80,78.1h-6.6l-2.6,1.5l-1.3,0.2v11.8l-4.2,1c-8.1,4.3-19.9,10.8-25.4,14
	l4.3,0L58.3,152.4z"/>
<g>
	<polygon points="85.4,91.7 68.3,91.7 68.3,90.7 66.8,89.6 67.5,88.7 85.4,88.7 	"/>
</g>
<g>
	<polygon points="36.3,109.6 35.8,106.7 58.9,103.3 110.9,105.3 110.8,108.3 59.1,106.3 	"/>
</g>
<g>
	<polygon points="59.7,104.8 56.7,104.8 56.7,103.1 70,89.3 72.1,91.4 59.7,104.3 	"/>
</g>
<path d="M89.3,151.8c-0.2,0-0.4,0-0.6-0.1H74.5c-1,0-1.8-0.3-2.4-1c-1-1.1-1.1-2.6-1.2-3.1l-4.5-36.6l1.1-0.4
	c5.3-2.1,17.5-2.2,18.9-2.2l0.1,0c0.3,0,6.2,0.4,10,0.9c3.7,0.6,6.1,2.1,6.9,2.6l0.1,0.1c0.6,0.4,1.3,1.2,0.7,4.1l0,0.2
	c-0.1,0.3-10.3,28.8-11.2,31.9c-0.5,1.7-1.4,2.9-2.4,3.3C90,151.7,89.6,151.8,89.3,151.8z M69.7,113.1l4.3,34.4l0,0.1
	c0,0.3,0.1,0.9,0.3,1.1c0,0,0.1,0.1,0.3,0.1l14.8,0c0.1-0.1,0.4-0.5,0.7-1.4c1-3.1,10.5-29.9,11.2-31.9c0.1-0.4,0.1-0.8,0.2-1.1
	c-0.8-0.5-2.7-1.6-5.4-2c-3.5-0.5-9.1-0.9-9.7-0.9C82.2,111.5,74,111.8,69.7,113.1z"/>
<path d="M64.7,151.2l-5.5-0.9l-2.8-9.4l-8.9-28.6l0.2-0.5c0.8-1.6,2.5-2.7,4.9-3.1c3.9-0.6,6.6,1.1,6.8,1.1l0.6,0.4
	L64.7,151.2z M50.8,112.6l8.5,27.4l1.8,6.1L57.3,112c-0.8-0.3-2.3-0.7-4.1-0.4C52.1,111.7,51.3,112.1,50.8,112.6z"/>
<g>
	
		<rect x="39.9" y="128.5" transform="matrix(0.1232 0.9924 -0.9924 0.1232 186.1495 49.3487)" width="50.5" height="3"/>
</g>
<g>
	<rect x="68" y="77.3" transform="matrix(1 1.830313e-03 -1.830313e-03 1 0.1443 -0.1402)" width="17.3" height="3"/>
</g>
<g>
	<path d="M75.1,169.3c-1.6,0-6.1-0.3-6.9-0.9l-0.6-0.4l-0.4-12.9l3-0.1l0.3,10.9c1.1,0.2,2.9,0.4,4.7,0.4
		c1.8,0,4.5-0.3,6.1-0.5l0.5-11l3,0.1l-0.6,13.5l-1.3,0.2C82.7,168.7,78,169.3,75.1,169.3z"/>
</g>
<g>
	<path d="M75.6,174.4c-4.4,0-7-0.4-8.2-0.6c-1.7-0.3-2.8-2-2.8-4.5c0-1,0.5-1.7,0.9-2.1c0.9-0.8,2.2-1,4.2-0.8l-0.4,3
		c-1-0.1-1.5,0-1.7,0c0,0.8,0.2,1.3,0.3,1.5c1.1,0.1,3.5,0.5,7.7,0.5c4.5,0,6.7-0.3,7.7-0.6c0.1,0,0.4-0.7,0.4-1.2c0,0,0,0,0-0.1
		c-0.1,0-0.3-0.1-0.6-0.1v-3c2.2,0,3.5,1.1,3.6,3.1l0,0.1c0,0.3-0.2,3.3-2.6,4C82.4,174.1,79.5,174.4,75.6,174.4z"/>
</g>
<g>
	<path d="M85.1,399.3c-3.9-1.5-4.1-6.8-4.1-7.1l0-224.5h3v224.4l0,0c0,0,0.2,3.5,2.2,4.3L85.1,399.3z"/>
</g>
<g>
	<path d="M65.5,399.3l-0.9-2.9c3.1-1,2.8-4,2.8-4.1l0-0.2V167.8h3v224.3C70.5,394.1,69.8,398,65.5,399.3z"/>
</g>
<path d="M564.8,75.5C570.7,71,576,61,575,52.3c-0.6-5.1-3.5-11.7-13.9-14.8c0-0.1,0-0.2,0.1-0.3
	c0.8-4.5,3.3-18.2-11.5-22.9c-9.2-2.9-14.5,0.2-17,2.6c-1.7-4.2-3.1-6.8-7-10.8c-7.2-7.4-22.4-6.7-30.3-5.1
	c-8.7,1.8-18,8.2-21.3,17.6c-3.9-8.2-10.9-13.1-21.6-15.2c-9.8-1.9-20.9,0.8-29,7.1c-11.8,9.1-9.9,20.2-8.2,30
	c0,0.2,0.1,0.5,0.1,0.7c-10.9-3-20-0.3-26.3,8c-5.1,6.6-6.3,13.2-3.9,20.5c-7.8-1.7-18.7-1.2-26.5,1.4c0,0-0.1,0-0.1,0
	c-5.5,2.3-9.3,6.7-12.7,10.6c-4.3,5-6.7,7.5-10.1,5.7c-2.8-2.4-9.9-8.2-20.4-3.7c-6.1,2.6-10.1,6.8-12,12.4
	c-2.5,7.5-0.4,15.7,2.2,20.4c4.8,8.6,17.2,12.3,27.8,8.3c0,0,0.1,0,0.1,0c0.7-0.3,1.3-0.6,1.9-0.9c2.6-1.3,4.5-2.3,6.9-1.9
	c1,0.2,4.1,2.5,7.1,4.8l3-1.5c-0.3-0.2-0.5-0.4-0.8-0.6c-4.7-3.5-7.2-5.3-8.9-5.6c-0.5-0.1-1.1-0.1-1.6-0.1c-2.6,0-4.8,1.1-7.1,2.3
	c-0.6,0.3-1.1,0.6-1.7,0.9c-9.2,3.5-19.9,0.3-24-7c-2.3-4.2-4.2-11.4-2-18c1.6-4.7,5.1-8.3,10.4-10.6c7.9-3.4,13.4,0,17.3,3.3
	c0.1,0.1,0.1,0.1,0.2,0.2c5.8,3.3,9.7-1.3,14-6.2c3.1-3.6,6.6-7.7,11.5-9.8c8.3-2.8,20.4-3,27.5-0.6c0.6,0.2,1.2,0,1.6-0.4
	c0.4-0.4,0.5-1.1,0.3-1.6c-3.4-7.5-2.7-13.7,2.4-20.3c6-7.9,14.6-10,25.3-6.3c0.5,0.2,1,0.1,1.5-0.3c0.4-0.3,0.6-0.9,0.5-1.4
	c-0.2-1-0.3-2.1-0.5-3.1c-1.7-9.8-3.3-19.1,7-27.2c7.4-5.8,17.6-8.3,26.6-6.5c11.5,2.3,18,7.8,21.1,17.8c0.2,0.7,0.9,1.1,1.6,1.1
	c0.7-0.1,1.3-0.6,1.4-1.3c1.2-10.6,11-18,20.1-19.8c13.5-2.8,23.5,0.1,27.5,4.2c4.2,4.3,5.2,6.5,7.3,12.2c0.2,0.6,0.7,0.9,1.3,1
	c0.6,0,1.2-0.3,1.4-0.8c0.2-0.3,3.9-7,15.2-3.4c10.9,3.5,10.7,12.2,9.4,19.5c-0.3,1.4-0.4,2,0,2.7c0.2,0.4,0.5,0.6,0.9,0.7
	c7.7,2,12.1,6.4,12.9,12.6c1,8.3-4.8,18.4-10.5,21.4c-0.5,0.2-0.8,0.7-0.8,1.2c0,0.5,0.2,1,0.7,1.3c10.1,6.8,10.9,21.3,5.2,30
	c-7.5,11.5-25,9.9-32.2,8.7c-0.6-0.1-1.2,0.1-1.5,0.6c-0.3,0.5-0.4,1.1-0.1,1.6c2.8,4.8,3.1,8.9,0.8,12.2c-5.7,8.1-26,9.9-35.2,8.2
	c-12.2-2.3-22.8-7.8-31.5-16.5c-6.1-6.1-10.6-8-15.5-6.8c-3,0.7-5.3,2.5-7.5,4.2c-3,2.4-5.9,4.6-10.8,4.2c-6.7-0.6-9.2-2.5-11.3-4.1
	c-0.6-0.5-1.2-0.9-1.9-1.3c-0.8-0.5-1.7-0.6-2.7-0.4c-2.7,0.7-4.8,4.5-7.1,8.6c-1.3,2.3-2.6,4.6-3.6,5.6c-7.7,7.3-14.2,8.5-25.2,7.9
	l-0.9,3c1.8,0.1,3.5,0.2,5.1,0.2c10.4,0,16.3-2.4,23-8.8c1.4-1.3,2.7-3.7,4.2-6.3c1.6-2.9,3.8-6.8,5.2-7.2c0.1,0,0.2,0,0.3,0.1
	c0.5,0.3,1.1,0.7,1.6,1.2c2.4,1.8,5.3,4.1,12.9,4.7c6,0.5,9.7-2.3,12.9-4.9c2-1.6,3.9-3.1,6.3-3.7c3.8-0.9,7.4,0.8,12.7,6
	c9.1,9.1,20.2,14.9,33,17.3c9.7,1.8,31.5,0.2,38.2-9.4c2.6-3.6,2.8-7.9,0.7-12.8c8.9,1.1,24.8,1.2,32.3-10.4
	C575.2,99,574.7,83.8,564.8,75.5z"/>
<path d="M371.8,155l-14.5-0.2l-8.4-24.3c-1,0.1-2.2,0.1-2.7,0.1c-1,0-1.5-0.6-1.7-0.9c-0.4-0.7-0.3-1.5,0-2l0.2-0.4
	l16.7-8.3v-5.8l2.1-0.3l1.4-0.9h4.7l1.5,0.9l2.1,0.4v6.1l0.9,0.3c14.6,7.9,14.9,8.3,15.1,8.5c0.7,0.9,0.4,1.7,0.3,1.9
	c-0.3,0.6-1,1-1.8,1l-2.2,0l-7.1,23L371.8,155z M359.5,151.9l12.1,0.1l4.6-0.6l7.2-23.3c-3.1-1.7-7.3-4-10.5-5.7l-2.6-0.6v-6l-0.2,0
	l-1.2-0.7h-3l-1.2,0.8l-0.2,0v6.1h-2.1l-11.3,5.6L359.5,151.9z"/>
<g>
	<polygon points="371.7,122 363,122 363,119 372.4,119 373,119.7 371.7,120.8 	"/>
</g>
<g>
	<polygon points="387.7,130.6 376.6,128.8 346.3,129.9 346.2,126.9 376.7,125.8 388.1,127.6 	"/>
</g>
<g>
	<polygon points="375.8,128.4 369.2,121.7 371.4,119.6 378.3,126.8 378.3,128 376.2,128 	"/>
</g>
<g>
	<rect x="371.8" y="127.9" transform="matrix(0.9924 0.123 -0.123 0.9924 20.1552 -44.8577)" width="3" height="25.7"/>
</g>
<g>
	
		<rect x="365.9" y="110.3" transform="matrix(1.953121e-03 1 -1 1.953121e-03 481.3979 -252.9479)" width="3" height="8.8"/>
</g>
<g>
	<path d="M368.2,161.5c-1.5,0-3.9-0.3-4-0.3l-1.2-0.2l-0.3-7.5l3-0.1l0.2,5c0.8,0.1,1.7,0.2,2.4,0.2
		c0.6,0,1.2,0,1.6-0.1l0.1-4.9l3,0.1l-0.2,6.9l-0.6,0.4C371.4,161.4,368.3,161.5,368.2,161.5z"/>
</g>
<g>
	
		<rect x="370.9" y="153.1" transform="matrix(0.8975 0.4411 -0.4411 0.8975 106.6543 -148.3199)" width="3" height="4.3"/>
</g>
<g>
	<path d="M368.2,163c-2.1,0-3.6-0.1-4.5-0.4c-1.3-0.4-1.8-1.3-1.9-1.9l0-0.1l0-0.1c0-1.4,1-2.3,2.6-2.3v2.2l0.4,0
		c-0.1-0.5-0.3-0.6-0.3-0.6c0.4,0.1,1.4,0.3,3.7,0.3c1.4,0,2.5-0.1,3.1-0.2l-0.2-1.6c1.2-0.1,2.1,0,2.7,0.6c0.3,0.2,0.7,0.8,0.7,1.6
		c0,1.2-0.8,2.1-2,2.3C371.5,162.8,370.3,163,368.2,163z M364.4,160.5v0.6c0.2-0.1,0.4-0.4,0.4-0.7L364.4,160.5z"/>
</g>
<g>
	<path d="M367.7,163.5c-3.6,0-4.4-0.8-4.6-1.1c-0.4-0.4-0.5-0.9-0.5-1.4l3,0.3c0.1-0.6-0.3-1-0.5-1.1
		c0.3,0.2,1.8,0.3,3,0.3l0.3,0c0.6,0,2.3,0,2.7-0.2c-0.1,0-0.3,0.2-0.4,0.6l2.9,0.7c-0.4,2-3.1,2-5.3,2l-0.2,0
		C368,163.5,367.9,163.5,367.7,163.5z"/>
</g>
<g>
	<path d="M361.4,280.2l-0.4-3c2.1-0.3,2-2.6,2-2.9l0-0.1V161.6h3v112.5C366.1,276,365.3,279.6,361.4,280.2z"/>
</g>
<g>
	<path d="M374.1,280.2c-3.7-0.6-4.3-4.2-4.2-6.1V161.6h3l0,112.7c0,0.4-0.2,2.6,1.6,2.9L374.1,280.2z"/>
</g>
</svg>
