<svg xmlns="http://www.w3.org/2000/svg" viewBox="0 0 348 234">
<g>
	<g>
		<path d="M178.4,172.8c-11.6,0-24-2-24.2-2l-1.3-0.2v-9.8l25.4,0.5c10.1,0,23.5-1.7,23.6-1.7l1.4-0.2l1.7,10.1
			l-1.4,0.3C203.3,169.9,190.1,172.8,178.4,172.8z M156,168c3.4,0.5,13.2,1.8,22.4,1.8c9.2,0,19.7-1.9,23.4-2.7l-0.8-4.4
			c-3.8,0.4-14.3,1.6-22.6,1.6h0l-22.4-0.5V168z"/>
	</g>
	<g>
		<path d="M167.3,234.6l-3-0.1c0.2-4.8,0.5-25.6-1-34.7c-1.4-8.8-7.7-29.5-7.7-29.7l2.9-0.9c0.3,0.9,6.3,21.1,7.8,30.1
			C167.8,208.6,167.5,229.8,167.3,234.6z"/>
	</g>
	<g>
		<path d="M191.1,234.6c-0.1-0.9-1.6-21.7-0.1-34.7s6.9-30.5,7.2-31.3l2.9,0.9c-0.1,0.2-5.6,18-7.1,30.7
			c-1.5,12.7,0.1,33.9,0.1,34.2L191.1,234.6z"/>
	</g>
	<g>
		<path d="M158.1,163.6c-7.4-5.2-13.6-12.9-14.9-15c-1.3-2.2-10.2-20.1-10-36c-0.1-1.3-0.9-19.7,1.9-26.4
			c2.4-5.6,7.9-9.2,10.1-10.5c-0.2-2.4-0.1-6.9,2.4-8c0.8-0.3,1.5-0.6,2.3-0.8c1.7-0.5,3.7-1.1,6.1-3c3.6-2.9,4.4-4,5.3-6.1
			c1-2.6,1-5.3,0.5-5.7l-0.1-0.1c-1.6-1.1-4-2.7-4-5.9c0-4.8,2.2-7.5,5.9-7.5c1,0,1.3-0.5,1.9-3.1c0.4-1.5,0.7-3,1.7-4.1
			c3.2-3.7,6.3-5.5,9.1-5.5c3.6,0,9.4,1.8,10.9,5.7l0.4,0.9c0.7,2,1.9,4.9,2.5,5.5c0.3,0.1,1,0.3,1.5,0.4c2.8,0.7,5.5,1.4,5.5,3.4
			c0,0.1,0.1,0.4,0.1,0.7c0.4,1.9,1.5,6.3-3,9.8c-3.3,2.6,0.7,7.8,0.8,7.9c2.3,3,5.2,5.8,6,5.9c0.4,0,0.8,0.1,1.2,0.1
			c2.3,0.2,4.7,0.4,6,1.9c1.1,1.3,0.8,4.3,0.5,6.6c1.8,0.9,5.3,2.8,7.5,5.4c8.3,9.8,6.7,28.9,6.3,32.6c-2,18.6-7.6,33.8-9.9,36.3
			l-0.3,0.4c-7.5,8.5-11.8,12.5-13.9,13.1l-0.8-2.9c0.7-0.2,3.2-1.7,12.4-12.2l0.3-0.4c1.8-2,7.2-16.6,9.1-34.7
			c2.2-20-4.3-28.8-5.7-30.4c-2.5-2.9-7.4-5.1-7.4-5.1l-1.1-0.5l0.2-1.2c0.4-2.2,0.5-4.8,0.3-5.3c-0.4-0.5-2.6-0.7-3.8-0.8
			c-0.5,0-0.9-0.1-1.3-0.1c-2.6-0.3-6.5-5-8.1-7.1c-2-2.7-4.7-8.6-0.2-12.1c2.9-2.3,2.3-5,1.9-6.7c-0.1-0.3-0.1-0.6-0.2-0.8
			c-0.7-0.4-2.4-0.8-3.3-1c-1.1-0.3-1.7-0.4-2.2-0.7c-1.4-0.7-2.3-2.9-3.9-7.1l-0.4-0.9c-0.9-2.3-5.3-3.8-8.1-3.8
			c-1.9,0-4.3,1.6-6.9,4.5c-0.5,0.6-0.8,1.7-1.1,2.9c-0.5,2.1-1.3,5.4-4.8,5.4c-0.8,0-2.9,0-2.9,4.5c0,1.5,1.1,2.3,2.7,3.4l0.1,0.1
			c2.5,1.6,1.7,6.6,0.6,9.3c-1.1,2.8-2.4,4.3-6.2,7.4c-2.9,2.3-5.2,3-7.1,3.5c-0.7,0.2-1.4,0.4-2,0.7c-0.5,0.3-0.9,3.1-0.6,6l0.1,1
			l-0.9,0.5c-0.1,0-7.1,3.6-9.6,9.5c-2.6,6.1-1.6,24.9-1.6,25.1l0,0.1l0,0.1c-0.2,15,8.3,32.5,9.5,34.4c1.2,1.9,7,9.2,14.1,14.2
			L158.1,163.6z"/>
	</g>
	<g>
		<path d="M147,78.1l-0.3-3l2.3-0.2c13.4-1.4,33.7-3.5,60.5,0.2l-0.4,3c-26.4-3.7-46.5-1.6-59.8-0.2L147,78.1z"/>
	</g>
	<g>
		<path d="M207.1,70.6c-0.2,0-16.6-2-30.3-2c-13.7,0-28.2,2-28.3,2l-0.4-3c0.1,0,14.8-2,28.7-2c13.9,0,30.5,2,30.6,2
			L207.1,70.6z"/>
	</g>
	<g>
		<path d="M160,49.4l-0.5-3c6.8-1.2,31.7-1.4,36.7,0l-0.8,2.9C190.9,48.1,166.2,48.4,160,49.4z"/>
	</g>
	<g>
		<path d="M160,43.5l-0.5-3c6.8-1.2,31.7-1.4,36.7,0l-0.8,2.9C190.9,42.2,166.2,42.4,160,43.5z"/>
	</g>
</g>
</svg>
