<svg xmlns="http://www.w3.org/2000/svg" viewBox="0 0 348 234">
<g>
	<g>
		<path d="M120.3,155.2c-15.5,0-27.9-5.5-37-16.5c-0.3-0.3-0.5-0.6-0.7-0.8c-6.3-6.6-7.8-23.4-7.9-24.2l0-0.4l0.2-0.4
			c1.5-3.2,8.1-11.7,21.1-11.7c10.9,0,53.9,4.5,69.6,14.4l0.7,0.5l0,0.8c0,0.2-0.1,4.7-2.7,10.5c-3.6,8-14.7,26.7-40.8,27.6
			C122,155.2,121.1,155.2,120.3,155.2z M77.8,113.9c0.3,2.6,2,16.7,7,21.9c0.2,0.2,0.5,0.5,0.8,0.9c3.3,4,13.4,16.2,37,15.3
			c24.4-0.9,34.8-18.4,38.1-25.9c1.7-3.8,2.2-7,2.3-8.5c-15.1-8.9-55.6-13.5-67.2-13.5C85.2,104.3,79.3,111.1,77.8,113.9z"/>
	</g>
	<g>
		<path d="M162.7,129.8l-0.9-2.9c0.3-0.1,7.5-2.3,10.9-2.6c3-0.2,17.4-0.5,20.4,0c2.1,0.4,13.7,1.4,19.8,1.9
			c4.5-1.3,11.9-3.7,13.3-4.7c0.3-0.2,0.3-0.3,0.3-0.3c0-0.1-0.2-0.5-0.4-0.8c-0.3-0.6-0.7-1.3-0.7-2.2c0-1.2-0.6-5.5-1.2-8.7
			c-0.4-2.2-3.4-7.5-4.5-9.4c-0.4-0.6-0.6-1.2-0.8-1.9c-0.2-0.5-0.5-1.3-0.7-1.5c-0.4,0-1.6,0.3-2.3,0.6c-1.5,0.4-2.9,0.9-4.1,0.7
			c-1.1-0.2-1.6-0.7-1.8-1.3c-0.4-0.2-1.4-0.5-4-0.9c-2.3-0.4-5.1-1-8.7-1.9c-2.7-0.7-5.5-1.5-8.4-2.3c-3.8-1.1-7.7-2.1-11.8-3.2
			c-3.8-1-9.2-2.9-15.5-5.2c-12.1-4.3-27.2-9.8-39.1-11.1c-20.5-2.3-36.1,6.5-37.8,7.6c-5.2,3.1-17.3,11.5-17.3,23.2
			c0,10.8,5,12.5,8.7,13.6l0.6,0.2l-0.9,2.8l-0.5-0.2c-4-1.3-10.7-3.5-10.7-16.5c0-13.3,13.1-22.5,18.7-25.8
			c1.8-1.1,18.2-10.3,39.7-7.9c12.2,1.3,27.5,6.8,39.7,11.2c6.2,2.2,11.6,4.1,15.2,5.1c4.1,1,8,2.1,11.8,3.2c3,0.8,5.8,1.6,8.4,2.3
			c3.5,0.9,6.2,1.5,8.4,1.8c3.8,0.6,5.5,1.1,6.1,2.2c0.7-0.1,1.7-0.4,2.5-0.6c1.7-0.5,3.1-0.9,4.2-0.5c1.5,0.5,2,2.1,2.5,3.4
			c0.2,0.5,0.4,1,0.5,1.3c0,0.1,4.3,7,5,10.5c0.4,1.9,1.3,7.4,1.3,9.3c0,0.1,0.2,0.6,0.3,0.8c0.5,1,1.6,3.2-1,4.9
			c-2.4,1.6-13.2,4.8-14.4,5.2l-0.3,0.1l-0.3,0c-0.7-0.1-17.6-1.5-20.4-2c-2.6-0.5-16.4-0.2-19.6,0
			C169.8,127.6,162.7,129.8,162.7,129.8z"/>
	</g>
	<g>
		<path d="M198.4,91.7l-2.7-1.2l1.4,0.6l-1.4-0.6c0.2-0.5,0.4-1.2,0.3-1.5c-1.7-0.6-9.6-1.1-12.9-1.1
			c-0.6,0-0.8,0.1-0.8,0.1c0.1-0.1,0.3-0.3,0.2-0.5l-2.8,1.1c-0.3-0.6-0.4-1.6,0.2-2.4c0.6-0.9,1.7-1.3,3.2-1.3
			c0.1,0,13.3,0.1,15.1,1.9C199.7,88.5,198.6,91.2,198.4,91.7z"/>
	</g>
	<g>
		<path d="M226.2,121.4c-3.8,0-25.5-5.9-55.5-14.2c-7.7-2.1-15-4.1-20.5-5.6c-17.9-4.8-37.9-6.4-59.2-4.7
			c-15.4,1.2-20.6,6-23.6,8.9L67,106l-2-2.2l0.2-0.2c3.4-3.1,9-8.3,25.4-9.7c21.7-1.7,42-0.1,60.3,4.8c5.5,1.5,12.8,3.5,20.5,5.6
			c20.4,5.6,51.1,14.1,54.6,14.1c0,0,0.1,0,0.1,0l0.2,3C226.3,121.4,226.2,121.4,226.2,121.4z"/>
	</g>
	<g>
		<path d="M69.1,113.2l-2.5-1.7c0.1-0.2,0.3-0.5,0.4-0.7c1.8-3.3,5.9-10.9,27.9-9.1l-0.2,3c-20-1.6-23.5,4.8-25,7.6
			C69.4,112.6,69.3,112.9,69.1,113.2z"/>
	</g>
	<g>
		
			<rect x="223.2" y="112.5" transform="matrix(0.9887 0.1497 -0.1497 0.9887 20.2908 -41.5317)" width="125.6" height="3"/>
	</g>
	<g>
		
			<rect x="225.8" y="121.5" transform="matrix(0.989 0.1478 -0.1478 0.989 21.3356 -41.0961)" width="122.8" height="3"/>
	</g>
</g>
</svg>
