<svg xmlns="http://www.w3.org/2000/svg" viewBox="0 0 348 234">
<g>
	<g>
		<path d="M108.7,204.6c-0.7,0-4.4-0.1-7-2.8c-1.9-1.9-2.8-4.5-2.7-7.8c0.2-9.2,5.8-55.8,6-57.8l3,0.4
			c-0.1,0.5-5.7,48.5-6,57.6c-0.1,2.4,0.5,4.3,1.8,5.5c1.9,2,4.9,1.9,4.9,1.9l41.5-1.5c0,0,68.7-2.8,74.7-3c5.7-0.2,7.3-1.1,9.9-4.2
			c2.6-3,2.6-8.7,2.6-8.8l1.7-84.6c-0.9-1.7-2.2-2.6-3.9-3c-2.7-0.5-5.7,0.7-7.1,1.6l-3.7,82c0,0.7-0.3,6.8-3.1,9.9
			c-0.5,0.6-3.7,4.3-11,5c-7.4,0.8-66.8,4.3-71.8,4.5c-1.6,0.1-3.4,0.2-5.2,0.3c-6,0.4-9.7,0.6-11.4,0.2c-3.8-0.8-5.2-3.3-4.7-8.4
			c0.5-5.2,2.2-30.2,2.2-30.5l3,0.2c-0.1,1-1.8,25.3-2.3,30.5c-0.4,4.5,0.8,4.8,2.3,5.1c1.4,0.3,6.3,0,10.6-0.2
			c1.8-0.1,3.7-0.2,5.3-0.3c5-0.2,64.3-3.7,71.7-4.5c6.4-0.7,8.9-3.8,9-3.9l0.1-0.1c1.7-1.9,2.3-6.5,2.4-8.1l3.8-83.4l0.5-0.4
			c1.4-1.2,5.8-3.5,10.1-2.6c2.7,0.5,4.8,2.2,6.2,4.8l0.2,0.3l-1.8,85.4c0,0.2,0,6.8-3.4,10.7c-3.4,3.9-5.9,5-12.1,5.3
			c-6,0.2-74.8,3-74.8,3l-41.5,1.5C108.8,204.6,108.8,204.6,108.7,204.6z"/>
	</g>
	<g>
		<path d="M233.5,108.9c-2.1,0-3.8-1.7-3.8-3.8c0-2.1,1.7-3.8,3.8-3.8s3.8,1.7,3.8,3.8
			C237.3,107.2,235.6,108.9,233.5,108.9z M233.5,104.3c-0.4,0-0.8,0.4-0.8,0.8c0,0.4,0.4,0.8,0.8,0.8s0.8-0.4,0.8-0.8
			C234.3,104.7,233.9,104.3,233.5,104.3z"/>
	</g>
	<g>
		<path d="M137.3,179c-2.7,0-8.5-1.3-14.1-10.6c-7.1-12-34-65.8-37.3-72.8c-0.6-1.2-1.4-2.9-2.4-4.8
			c-5.7-11-8.2-16.6-7.3-19.1c0.2-0.6,0.7-1.1,1.3-1.4c2.9-1.3,93.9-17.4,112.1-20.6l1.2-0.2l0.4,1.1c0.1,0.3,11.8,30.3,15.5,39.2
			c3.7,8.8,19.7,40.9,19.9,41.2l-2.7,1.3c-0.7-1.3-16.3-32.4-20-41.4c-3.3-7.9-12.9-32.5-15.1-38.1C146.8,60.3,85,71.4,78.9,72.9
			c-0.1,2.5,5,12.2,7.2,16.5c1,2,1.9,3.6,2.5,4.9c4.1,8.6,30.4,61.1,37.2,72.6c6.2,10.5,12.2,9.1,12.3,9.1l0.3-0.1l22.2-1.8
			l62.7-5.5l0.3,3l-62.7,5.5l-22.2,1.7C138.5,178.9,138,179,137.3,179z"/>
	</g>
	<g>
		<path d="M78.6,73l-1.2-2.7l34.1-14.9c-1.5-3.5-1.8-6.3-0.8-8.8c1.5-3.9,5.8-5.9,9.8-7.3c8.1-3,13.1,0,13.3,0.1
			l0.3,0.2l0.2,0.3c1.1,1.9,6.4,11.7,6.7,14.9c0.3,4-4.8,7.7-9.6,8.6c-4.2,0.8-13.5,0.1-15.7-1.2c-1.4-0.8-2.5-2.7-3.1-4.1L78.6,73z
			 M114.4,54.1l0.5,1.6c0.4,1.3,1.5,3.4,2.3,3.9c1.2,0.7,9.5,1.6,13.6,0.8c3.6-0.7,7.3-3.5,7.1-5.4c-0.2-1.9-3.7-9-6.1-13.3
			c-1.1-0.5-4.7-1.8-10.4,0.3c-4.8,1.8-7.2,3.4-8.1,5.6c-0.7,1.7-0.4,3.8,0.8,6.5L114.4,54.1z"/>
	</g>
	<g>
		<polygon points="190.6,52.4 189,49.9 208.5,37.6 138.2,51.7 137.6,48.7 216,33.1 217.1,35.8 		"/>
	</g>
	<g>
		<path d="M252.6,166.7c-1.3,0-2.6-0.2-3.9-0.7c-7.3-2.8-10.4-12.7-10.5-13.2l2.9-0.9c0,0.1,2.8,9,8.8,11.3
			c2.6,1,5.5,0.5,8.6-1.3c2.6-1.6,4.2-3.8,5-6.7c2.3-9.2-5.4-21.9-5.5-22l-0.1-0.1c-0.1-0.1-6-11.7-11.9-23.5
			c-5.2-10.5-8.7-17.8-10.4-21.9c-4.7-11.1-20.6-52.2-20.8-52.6l1.4-2c1,0,2,0,2.9-0.1c4.6-0.1,8.6-0.2,10.4,4
			c1.7,4,16.4,42.4,17,44.1l4.6,10.8c0.6,0.9,3.5,5.7,1.9,9.8c-1.2,2.9-3.1,6-4,7.4c5.5,11.1,11,21.8,11.4,22.6
			c0.6,1,8.3,14,5.8,24.2c-0.9,3.7-3,6.6-6.3,8.6C257.5,165.9,255,166.7,252.6,166.7z M218.4,36c3.3,8.4,15.9,40.8,20,50.5
			c1.6,3.7,4.6,10.2,9.2,19.4c0.9-1.5,2-3.5,2.8-5.3c1.2-2.9-1.6-7-1.7-7.1l-0.1-0.3l-4.7-11c-0.2-0.5-15.3-40.1-17-44
			c-1-2.3-3-2.4-7.6-2.2C219,36,218.7,36,218.4,36z"/>
	</g>
	<g>
		<path d="M239.4,170.6l-0.2-3c4-0.3,10.7-0.9,12-1.4c1.3-0.5,5.9-3.5,8.5-5.2l1.7,2.5c-0.7,0.5-7,4.8-9.1,5.6
			C250.2,169.8,241.2,170.5,239.4,170.6z"/>
	</g>
	<g>
		<path d="M121.4,150.7L86.1,77l99.1-17.5l35.3,78.2l-57.3,7.2L121.4,150.7z M90.5,79.3l32.7,68.1l39.7-5.5l53.3-6.7
			l-32.7-72.4L90.5,79.3z"/>
	</g>
	<g>
		<polygon points="191.8,226.6 161.1,226.6 161.1,201.1 164.1,201.1 164.1,223.6 188.8,223.6 188.8,200 191.8,200 		"/>
	</g>
	<g>
		<path d="M230.1,234c-1,0-2.8,0-3.9,0c-1.7-1.9-5.7-6.1-10.4-7.5c-6.4-1.9-25.4-2.6-25.6-2.6l0.1-3
			c0.8,0,19.6,0.7,26.4,2.7c7.1,2.1,12.5,9.3,12.8,9.6L230.1,234z"/>
	</g>
	<g>
		<path d="M246.5,234c0,0-2.4,0-3.2,0c-1.1-2.5-5.9-12-15.7-16.8c-11.6-5.6-37.3-8.7-37.5-8.7l0.3-3
			c1.1,0.1,26.4,3.1,38.5,9c12.4,6,17.2,18.5,17.4,19L246.5,234z"/>
	</g>
	<g>
		<path d="M263.4,234h-3v-8.8c-0.1-0.2-0.6-1.3-3.5-1.3h-19.8v-3h19.8c5.9,0,6.5,3.8,6.5,4l0,0.2V234z"/>
	</g>
	<g>
		<path d="M175.7,221.2c-1.8,0-3.4-0.9-4.6-2.6c-1.5-2.2-1.8-4.5-0.8-6.7c1-2.2,3.2-3.8,4.6-4c1.1-0.1,2.1,0,2.4,0
			c1.4,0,2.6,0.7,3.5,2c1.3,2.1,1.7,5.6,0.7,7.7c-0.7,1.6-2.7,3.3-5.1,3.6C176,221.2,175.8,221.2,175.7,221.2z M176,210.8
			c-0.3,0-0.6,0-0.9,0c-0.3,0.1-1.7,1.1-2.3,2.5c-0.4,1.1-0.2,2.2,0.7,3.4c0.7,1,1.5,1.4,2.4,1.4c1.1-0.1,2.3-1,2.7-1.8
			c0.5-1.1,0.4-3.5-0.5-4.8c-0.5-0.7-0.9-0.7-1-0.7l-0.1,0l-0.1,0C176.8,210.9,176.5,210.8,176,210.8z"/>
	</g>
</g>
</svg>
