<svg xmlns="http://www.w3.org/2000/svg" class="open-bottom" viewBox="0 0 348 234">
<g>
	<path class="st0" d="M109.3,141c0,0,14.4,67.7,16.8,68.6c2.3,0.9,20.1,7.8,55.3,6.1c34.6-1.6,45.7-3.8,53.9-10.1l12.2-67.9
		c0,0,2-2,2.2-4c-0.9-4.7-3.4-4.1-6.7-4.1c0,0-7.2-11.2-12.1-16c-4.9-4.9-16.6-11.5-16.6-11.5l-3.2-6.3l-5.4-56.2
		c0,0,1.1-5.6-9.2-6.3c-6.7-0.5-5.9-5-6.5-7.4c-0.5-2.3-1.3-3.1-14.2-3.1s-16.1,1.3-16.1,4.1s1.6,7-9.4,7c-7-0.2-6.3,6.7-6.3,6.7
		l-0.7,55.1l-2.3,7.6c0,0-9,4.1-16.6,13.7s-9.4,11.9-10.6,16.4c0,0-3.4-0.7-5.2,1.8S109.3,141,109.3,141z"/>
	<path class="st0" d="M108.6,139.9c0,0,19.3,7.4,71.6,5.8c51.4-1.6,67.2-7.9,67.2-7.9"/>
	<path class="st0" d="M113.8,133.4c0,0,13.9,7.7,64.2,5.4c50.3-2.3,55.5-3.8,64.9-9.2"/>
	<path class="st0" d="M141.7,101c0,0,16.1,5,36.3,4c20.2-1.1,28-4.2,34.6-6.1"/>
	<line class="st0" x1="348" y1="79.3" x2="210.7" y2="92.5"/>
	<path class="st0" d="M208.5,69.5c1.8,0,139.5-3,139.5-3"/>
</g>
</svg>
