<svg xmlns="http://www.w3.org/2000/svg" viewBox="0 0 348 234" >
<g>
	<g>
		<path d="M268,122l-163.7-16.5l-54.1,15.4l4.2-52l53.9-23.2L268,68.7V122z M104,102.5l2.3,0.2l158.7,16V71.3
			L108.7,48.9L57.2,71l-3.8,45.9L104,102.5z"/>
	</g>
	<g>		
			<rect x="103.7" y="48.2" transform="matrix(0.9992 3.873313e-02 -3.873313e-02 0.9992 3.0273 -4.0177)" width="3" height="55.8"/>
	</g>
	<g>
		<polygon points="203.9,133.8 203.7,133.8 51.7,120.4 51.9,117.4 203.7,130.8 266.2,118.8 266.7,121.8 		"/>
	</g>
	<g>
		<path d="M152.5,127.2c-10.9,0-25.6-0.2-35.2-1c-50-4.4-50.7-8.2-51.1-10.2c-0.3-1.4,0.6-2.5,2.4-3.5l1.3,2.7
			c-0.3,0.1-0.5,0.3-0.6,0.4c1.5,1.2,9.3,4.2,48.2,7.6c16.2,1.4,47.2,0.9,49.4,0.9c2-0.4,28.1-5,33.7-6.7c0.3-0.1,0.6-0.2,0.8-0.3
			c-0.5-0.3-1.1-0.6-1.6-0.8c-1-0.5-2.1-1.1-3.2-1.7l1.6-2.6c1,0.6,2,1.1,3,1.6c2.4,1.2,4.2,2.1,4,3.8c-0.1,1.6-1.9,2.3-3.8,2.8
			c-6,1.8-33,6.5-34.2,6.8l-0.2,0C167,127.1,160.8,127.2,152.5,127.2z"/>
	</g>
	<g>
		<polygon points="303,234 300,234 300,74 279.8,71.5 266.7,74.1 266.2,71.2 279.7,68.5 303,71.3 		"/>
	</g>
	<g>
		<polygon points="274.9,127.4 255.3,123.9 255.9,120.9 271.9,123.8 271.9,85 266.1,83.8 266.8,80.9 274.9,82.6 		"/>
	</g>
	<g>
		<polygon points="264.6,131.1 243.4,126.1 244.1,123.2 264.4,127.9 273.6,124.2 274.7,127 		"/>
	</g>
	<g>
		<rect x="263" y="129.5" width="3" height="104.5"/>
	</g>
	<g>
		<rect x="278.3" y="70" width="3" height="164"/>
	</g>
</g>
</svg>
