<svg xmlns="http://www.w3.org/2000/svg" class="traditionaire-colonial" viewBox="0 0 348 234">
<g>
	<g>
		<path d="M172,198.2l-20.7-3.2l-35.6-94.9l-10.9-0.9v-7.3l1.4-0.1c2.6-0.1,7.2-0.8,8.6-2c1.8-1.5,5.2-9.1,6.7-14.3
			l0.3-1.1c1.3-4.6,3.1-10.8,7.5-14.6c4.7-4.2,7.9-5.2,18.3-7.5c7.4-1.6,11.7-2.6,13.6-3.1l-0.1-10.5l-3.2-2.3v-5l19.6-6.5l19,5.6
			v5.1l-2.2,2.2v11.9c3.5,0.1,12.5,0.4,18.1,1.7c14.6,3.1,18.9,11,19.9,13.4c0.8,1.8,1.6,3.9,2.5,6c2.4,5.9,5,12.5,6.5,14.5
			c1.4,1.8,7.3,4,10.7,5l1.1,0.3v7h-12.5l-37.3,99.2L172,198.2z M153.5,192.4l18.7,2.8l29.2-1.4l37.4-99.3h11.5v-1.7
			c-2.7-0.8-9.2-3.1-11.2-5.7c-1.7-2.3-4.4-8.8-6.9-15.2c-0.8-2.1-1.7-4.2-2.4-6c-3.3-8-14.4-10.9-17.8-11.6
			c-6.8-1.5-18.9-1.6-19-1.6l-1.5,0V36.6l2.2-2.2v-1.6l-16-4.7L161,33.6v1.3l3.2,2.3l0.2,14.4l-1.2,0.3c0,0-4.3,1-14.9,3.3
			c-10.6,2.3-13,3.3-17,6.8c-3.7,3.2-5.3,9-6.6,13.2l-0.3,1.1c-1.2,4.2-4.8,13.3-7.6,15.7c-2,1.7-6.6,2.4-9,2.6v1.7l10.1,0.8
			L153.5,192.4z"/>
	</g>
	<g>
		<polygon points="106.5,99.4 106.1,96.4 156.4,89.4 250.3,94.5 250.3,93.1 156.5,87.9 106.5,94.9 106.1,91.9 
			156.4,84.9 156.5,84.9 253.3,90.3 253.3,97.6 156.5,92.4 		"/>
	</g>
	<g>
		<path class="st1" d="M195.5,51.3c0,0-9.7,0.4-15,0c-5.3-0.4-9.7-1.2-11.5-1.2c-1.8,0-2.2-0.4-8.2,1"/>
		<path d="M186.7,52.9c-2.3,0-4.6,0-6.4-0.2c-2.9-0.2-5.4-0.5-7.5-0.8c-1.8-0.2-3.2-0.4-3.9-0.4c-0.4,0-0.7,0-1,0
			c-1.1-0.1-2.2-0.1-6.9,1l-0.7-2.9c5.1-1.2,6.3-1.1,7.7-1c0.3,0,0.5,0,0.8,0c1,0,2.4,0.2,4.3,0.4c2,0.3,4.5,0.6,7.3,0.8
			c5.2,0.4,14.7,0,14.8,0l0.1,3C195.3,52.8,191.1,52.9,186.7,52.9z"/>
	</g>
	<g>
		<path d="M156.9,87.8l-0.8-2.9c1.5-0.4,3.1-1.3,3.2-1.7c0.2-1.7,1.8-17.3,2-18.7c0-1.8,0.1-13.5,5.6-15.9l1.2,2.7
			c-2.9,1.2-3.8,8.7-3.8,13.2l0,0.1l0,0.1c0,0.2-1.8,17-2,18.8C162,86.2,158.1,87.5,156.9,87.8z"/>
	</g>
	<g>
		<line class="st1" x1="172.3" y1="197.5" x2="160.8" y2="91.1"/>
		
			<rect x="113" y="142.8" transform="matrix(0.1075 0.9942 -0.9942 0.1075 292.1192 -36.7596)" width="107.1" height="3"/>
	</g>
	<g>
		<path d="M207.7,170.9h-35l-7.8-76.1l70.2,3.9L207.7,170.9z M175.4,167.9h30.2l25.2-66.4L168.2,98L175.4,167.9z"/>
	</g>
	<g>
		<path d="M166,170.9h-18.6l-26-71.2l36.3-4.9L166,170.9z M149.5,167.9h13.1l-7.5-69.8l-29.6,4L149.5,167.9z"/>
	</g>
	<g>
		<path d="M177.6,222.1c-7.2,0-13.4-1.2-13.6-1.3l-1.1-0.2l-2.4-25.2l3-0.3l2.2,23c2.1,0.3,6.8,1,11.9,1
			c5,0,9-0.8,10.7-1.2l2.4-22.3l3,0.3l-2.6,24.3l-1,0.3C189.9,220.6,184.8,222.1,177.6,222.1z"/>
	</g>
	<g>
		<rect x="166" y="219.9" width="3" height="14.1"/>
	</g>
	<g>
		<rect x="184.7" y="219.9" width="3" height="14.1"/>
	</g>
</g>
</svg>
